<svg width="60" height="60" viewBox="0 0 60 60" fill="none" xmlns="http://www.w3.org/2000/svg">
<path d="M30.2059 18.8385L25.7808 34.7341C25.1385 37.0322 23.6107 38.9816 21.5327 40.1546C19.4548 41.3276 16.9963 41.6283 14.6969 40.9908C14.3136 40.8841 13.9885 40.6295 13.7929 40.2831C13.5973 39.9366 13.5474 39.5267 13.6541 39.1434C13.7608 38.7602 14.0154 38.435 14.3618 38.2395C14.7082 38.0439 15.1182 37.994 15.5014 38.1007C17.0344 38.5274 18.6742 38.3277 20.0599 37.5455C21.4457 36.7633 22.464 35.4626 22.8907 33.9296L23.293 32.4845L12.4551 29.4674C11.6886 29.2541 11.0383 28.7449 10.6472 28.052C10.256 27.3592 10.1562 26.5393 10.3696 25.7728L13.5878 14.2124C13.8012 13.4459 14.3103 12.7955 15.0032 12.4044C15.6961 12.0133 16.5159 11.9134 17.2824 12.1268L28.1203 15.1439C28.8868 15.3573 29.5372 15.8664 29.9283 16.5593C30.3194 17.2522 30.4193 18.072 30.2059 18.8385ZM49.0736 20.9769L38.2357 17.9598C37.4692 17.7464 36.6493 17.8463 35.9564 18.2374C35.2635 18.6285 34.7544 19.2789 34.541 20.0454L31.3228 31.6058C31.1094 32.3723 31.2093 33.1922 31.6004 33.885C31.9915 34.5779 32.6419 35.0871 33.4084 35.3004L44.2463 38.3175L43.844 39.7626C43.4172 41.2956 42.399 42.5963 41.0132 43.3785C39.6274 44.1607 37.9877 44.3604 36.4547 43.9337C36.0714 43.827 35.6615 43.8769 35.315 44.0725C34.9686 44.268 34.714 44.5932 34.6073 44.9764C34.5007 45.3597 34.5506 45.7696 34.7461 46.1161C34.9417 46.4625 35.2669 46.7171 35.6501 46.8238C37.9496 47.4613 40.408 47.1606 42.486 45.9876C44.564 44.8147 46.0918 42.8652 46.7341 40.5671L51.1591 24.6715C51.3725 23.905 51.2727 23.0852 50.8815 22.3923C50.4904 21.6994 49.8401 21.1903 49.0736 20.9769Z" fill="#CF5035"/>
</svg>
