<svg width="223" height="71" viewBox="0 0 223 71" fill="none" xmlns="http://www.w3.org/2000/svg">
<g clip-path="url(#clip0_0_7)">
<path d="M48.9677 1.03567C48.9677 0.687176 48.6255 0.410781 48.2171 0.410781L45.1702 0.410781C44.7507 0.410781 44.4196 0.687176 44.4196 1.03567L44.4196 2.32151L48.9788 2.32151L48.9788 1.03567L48.9677 1.03567Z" fill="#CF5035"/>
<path d="M37.4526 6.25118L37.4526 9.30354C37.4526 11.6132 39.1726 13.4855 41.2943 13.4855L52.0796 13.4855C54.2013 13.4855 55.9213 11.6132 55.9213 9.30354L55.9213 6.25118C55.9213 3.94154 54.2013 2.06921 52.0796 2.06921L41.2943 2.06921C39.1726 2.06921 37.4526 3.94154 37.4526 6.25118Z" fill="#151513"/>
<path d="M36.9677 9.80821L36.9677 5.75843C36.9677 3.43911 38.7008 1.55242 40.8314 1.55242L52.533 1.55242C54.6636 1.55242 56.3968 3.43911 56.3968 5.75843L56.3968 9.80821C56.3968 12.1275 54.6636 14.0142 52.533 14.0142L40.8314 14.0142C38.7008 14.0142 36.9677 12.1275 36.9677 9.80821ZM55.4364 5.75843C55.4364 4.01594 54.1337 2.60993 52.5441 2.60993L40.8424 2.60993C39.2417 2.60993 37.9501 4.02795 37.9501 5.75843L37.9501 9.80821C37.9501 11.5507 39.2528 12.9567 40.8424 12.9567L52.5441 12.9567C54.1448 12.9567 55.4364 11.5387 55.4364 9.80821L55.4364 5.75843Z" fill="#CF5035"/>
<path d="M48.9678 69.7739L48.9678 68.4881L44.4086 68.4881L44.4086 69.7739C44.4086 70.1224 44.7508 70.3988 45.1593 70.3988L48.2061 70.3988C48.6256 70.3988 48.9568 70.1224 48.9568 69.7739L48.9678 69.7739Z" fill="#CF5035"/>
<path d="M55.9228 64.5585L55.9228 61.5062C55.9228 59.1965 54.2028 57.3242 52.0811 57.3242L41.2958 57.3242C39.1741 57.3242 37.4541 59.1965 37.4541 61.5062L37.4541 64.5585C37.4541 66.8682 39.1741 68.7405 41.2958 68.7405L52.0811 68.7405C54.2028 68.7405 55.9228 66.8682 55.9228 64.5585Z" fill="#151513"/>
<path d="M36.9685 65.0631L36.9685 61.0134C36.9685 58.694 38.7017 56.8073 40.8323 56.8073L52.5339 56.8073C54.6645 56.8073 56.3977 58.694 56.3977 61.0134L56.3977 65.0631C56.3977 67.3825 54.6645 69.2691 52.5339 69.2691L40.8323 69.2691C38.7017 69.2691 36.9685 67.3825 36.9685 65.0631ZM55.4372 61.0134C55.4372 59.2709 54.1346 57.8649 52.545 57.8649L40.8433 57.8649C39.2426 57.8649 37.951 59.2829 37.951 61.0134L37.951 65.0631C37.951 66.8056 39.2537 68.2116 40.8433 68.2116L52.545 68.2116C54.1457 68.2116 55.4372 66.7936 55.4372 65.0631L55.4372 61.0134Z" fill="#CF5035"/>
<path d="M178.14 69.7738L178.14 68.488L173.581 68.488L173.581 69.7738C173.581 70.1223 173.923 70.3987 174.331 70.3987L177.378 70.3987C177.798 70.3987 178.129 70.1223 178.129 69.7738L178.14 69.7738Z" fill="#CF5035"/>
<path d="M185.093 64.5584L185.093 61.5061C185.093 59.1964 183.373 57.3241 181.251 57.3241L170.466 57.3241C168.344 57.3241 166.624 59.1964 166.624 61.5061L166.624 64.5584C166.624 66.8681 168.344 68.7404 170.466 68.7404L181.251 68.7404C183.373 68.7404 185.093 66.8681 185.093 64.5584Z" fill="#151513"/>
<path d="M166.139 65.0631L166.139 61.0133C166.139 58.694 167.873 56.8073 170.014 56.8073L181.716 56.8073C183.846 56.8073 185.58 58.694 185.58 61.0133L185.58 65.0631C185.58 67.3824 183.846 69.2691 181.716 69.2691L170.014 69.2691C167.884 69.2691 166.139 67.3824 166.139 65.0631ZM184.608 61.0133C184.608 59.2708 183.305 57.8648 181.716 57.8648L170.014 57.8648C168.413 57.8648 167.122 59.2828 167.122 61.0133L167.122 65.0631C167.122 66.8056 168.424 68.2116 170.014 68.2116L181.716 68.2116C183.316 68.2116 184.608 66.7936 184.608 65.0631L184.608 61.0133Z" fill="#CF5035"/>
<path d="M178.138 1.03569C178.138 0.687191 177.796 0.410797 177.387 0.410797L174.34 0.410796C173.921 0.410796 173.59 0.687191 173.59 1.03569L173.59 2.32153L178.149 2.32153L178.149 1.03569L178.138 1.03569Z" fill="#CF5035"/>
<path d="M166.623 6.25117L166.623 9.30353C166.623 11.6132 168.343 13.4855 170.464 13.4855L181.25 13.4855C183.371 13.4855 185.091 11.6132 185.091 9.30353L185.091 6.25117C185.091 3.94153 183.371 2.06919 181.25 2.06919L170.464 2.06919C168.343 2.06919 166.623 3.94153 166.623 6.25117Z" fill="#151513"/>
<path d="M166.138 9.8082L166.138 5.75841C166.138 3.4391 167.872 1.55241 170.013 1.55241L181.715 1.55241C183.846 1.55241 185.579 3.4391 185.579 5.75842L185.579 9.8082C185.579 12.1275 183.846 14.0142 181.715 14.0142L170.013 14.0142C167.883 14.0142 166.138 12.1275 166.138 9.8082ZM184.607 5.75842C184.607 4.01593 183.305 2.60992 181.715 2.60992L170.013 2.60992C168.413 2.60992 167.121 4.02794 167.121 5.75841L167.121 9.8082C167.121 11.5507 168.424 12.9567 170.013 12.9567L181.715 12.9567C183.316 12.9567 184.607 11.5387 184.607 9.8082L184.607 5.75842Z" fill="#CF5035"/>
<path d="M183.57 66.4931C188.207 66.9858 192.898 66.7815 197.458 65.736C222.903 59.8596 222.274 35.4047 222.274 35.4047C222.274 35.4047 222.903 10.9618 197.458 5.08538C192.898 4.02786 188.207 3.83559 183.57 4.32829C176.936 5.02529 45.6123 5.02528 38.9777 4.32829C34.3412 3.83558 29.6495 4.03987 25.0903 5.08537C-0.355288 10.9618 0.273938 35.4047 0.273938 35.4047C0.273938 35.4047 -0.35529 59.8476 25.0903 65.724C29.6495 66.7815 34.3412 66.9738 38.9777 66.4811C45.6123 65.7841 176.936 65.7841 183.57 66.4811L183.57 66.4931Z" fill="#CF5035"/>
<path d="M191.118 44.2735C191.626 44.8263 192.454 44.8263 192.972 44.2735C193.48 43.7207 193.48 42.8194 192.972 42.2546C192.465 41.7018 191.637 41.7018 191.118 42.2546C190.61 42.8074 190.61 43.7087 191.118 44.2735Z" fill="#151513"/>
<path d="M192.972 26.5482C192.465 25.9954 191.637 25.9954 191.118 26.5482C190.61 27.101 190.61 28.0023 191.118 28.5671C191.626 29.1199 192.454 29.1199 192.972 28.5671C193.48 28.0143 193.48 27.113 192.972 26.5482Z" fill="#151513"/>
<path d="M182.196 42.2548C181.688 41.702 180.86 41.702 180.342 42.2548C179.834 42.8076 179.834 43.7089 180.342 44.2737C180.849 44.8265 181.677 44.8265 182.196 44.2737C182.704 43.7209 182.704 42.8196 182.196 42.2548Z" fill="#151513"/>
<path d="M182.196 26.5484C181.688 25.9956 180.86 25.9956 180.342 26.5484C179.834 27.1012 179.834 28.0025 180.342 28.5673C180.849 29.1201 181.677 29.1201 182.196 28.5673C182.704 28.0145 182.704 27.1132 182.196 26.5484Z" fill="#151513"/>
<path d="M31.4247 26.5484C30.9169 25.9956 30.0889 25.9956 29.5811 26.5484C29.0733 27.1011 29.0733 28.0024 29.5811 28.5672C30.0889 29.12 30.9169 29.12 31.4247 28.5672C31.9325 28.0144 31.9325 27.1132 31.4247 26.5484Z" fill="#151513"/>
<path d="M31.4246 42.2548C30.9168 41.702 30.0888 41.702 29.581 42.2548C29.0732 42.8076 29.0732 43.7088 29.581 44.2737C30.0888 44.8264 30.9168 44.8264 31.4246 44.2737C31.9324 43.7209 31.9324 42.8196 31.4246 42.2548Z" fill="#151513"/>
<path d="M42.2009 26.5482C41.6931 25.9954 40.8651 25.9954 40.3573 26.5482C39.8495 27.101 39.8495 28.0022 40.3573 28.567C40.8651 29.1198 41.6931 29.1198 42.2009 28.567C42.7087 28.0143 42.7087 27.113 42.2009 26.5482Z" fill="#151513"/>
<path d="M40.3452 44.2735C40.853 44.8263 41.681 44.8263 42.1888 44.2735C42.6966 43.7207 42.6966 42.8194 42.1888 42.2546C41.681 41.6898 40.853 41.7018 40.3452 42.2546C39.8374 42.8074 39.8374 43.7087 40.3452 44.2735Z" fill="#151513"/>
<path d="M12.2942 13.7137C16.1138 10.0485 21.0153 7.90943 25.9498 6.79184C32.5844 5.28969 39.3184 6.21501 46.0192 6.32317C59.9839 6.52746 73.9597 6.50343 87.9244 6.49141C116.428 6.47939 144.931 6.65965 173.435 6.33519C177.122 6.29914 180.82 6.33519 184.496 6.02275C188.371 5.7103 192.268 5.84249 196.098 6.64764C201.806 7.86137 207.513 10.4451 211.631 15.0236C207.734 11.2142 202.667 8.91888 197.611 7.68112C190.976 6.0588 184.397 6.87597 177.674 7.03219C163.797 7.34463 149.899 7.34463 136.023 7.40472C107.718 7.52489 79.402 7.51287 51.1083 7.1163C47.4433 7.06823 43.7783 7.0442 40.1132 6.86394C36.2826 6.67167 32.5403 6.37124 28.7207 6.91201C22.9361 7.74119 16.9638 9.79613 12.2942 13.7257L12.2942 13.7137Z" fill="#151513"/>
<path d="M12.2948 57.1919C16.3242 60.5807 21.3581 62.5635 26.3258 63.585C32.9383 64.9429 39.6391 64.0176 46.3069 63.8854C60.1722 63.609 74.0486 63.585 87.925 63.5249C116.241 63.4048 144.556 63.3927 172.861 63.8013C176.471 63.8494 180.092 63.8494 183.691 64.0897C187.566 64.3421 191.352 64.4502 195.205 63.7412C201.1 62.6717 207.127 60.2923 211.631 55.882C208.066 59.8477 203.285 62.3232 198.395 63.6932C191.738 65.5678 185.126 64.7867 178.348 64.6545C164.383 64.3781 150.407 64.4382 136.443 64.4382C107.939 64.4382 79.4358 64.258 50.9323 64.5344C47.2121 64.5704 43.4808 64.5824 39.7716 64.7507C35.8968 64.9309 32.1324 65.1713 28.2687 64.5704C22.5393 63.6691 16.6885 61.4219 12.2948 57.2039L12.2948 57.1919Z" fill="#151513"/>
</g>
<rect x="62.7704" y="24.3803" width="25.2091" height="25.2091" transform="rotate(-5 62.7704 24.3803)" fill="#151513"/>
<rect x="62.7704" y="24.3803" width="25.2091" height="25.2091" transform="rotate(-5 62.7704 24.3803)" stroke="#F1E5DC" stroke-width="1.32679"/>
<path d="M73.5657 44.8539C72.8724 44.9145 72.6644 44.74 72.6037 44.0467L71.1897 27.8844C71.129 27.191 71.3036 26.983 71.9969 26.9224L75.392 26.6254C78.8587 26.3221 80.5496 27.4751 80.8027 30.368L80.9241 31.7547C81.0328 32.998 80.7038 33.9181 79.9339 34.7564C79.8685 34.8344 79.8467 34.8604 79.8508 34.9083C79.855 34.9561 79.881 34.9779 79.959 35.0433C80.9324 35.705 81.4557 36.4543 81.5665 37.7214L81.7694 40.0406C82.0121 42.814 80.4753 44.2494 76.8412 44.5673L73.5657 44.8539ZM74.7422 30.4887L74.9828 33.2382C75.012 33.5729 75.116 33.6602 75.4508 33.6309L75.9528 33.587C77.1244 33.4845 77.6148 33.032 77.5228 31.98L77.4621 31.2867C77.3701 30.2347 76.8085 29.8743 75.637 29.9768L75.1349 30.0207C74.8002 30.05 74.7129 30.154 74.7422 30.4887ZM76.7397 41.2034C77.9112 41.1009 78.4016 40.6484 78.3096 39.5964L78.1903 38.2336C78.0983 37.1817 77.5368 36.8212 76.3652 36.9237L75.7436 36.9781C75.4089 37.0074 75.3216 37.1114 75.3509 37.4461L75.65 40.8651C75.6793 41.1998 75.7833 41.287 76.118 41.2578L76.7397 41.2034Z" fill="#F1E5DC"/>
<rect x="88.408" y="22.1831" width="25.2091" height="25.2091" transform="rotate(5 88.408 22.1831)" fill="#151513"/>
<rect x="88.408" y="22.1831" width="25.2091" height="25.2091" transform="rotate(5 88.408 22.1831)" stroke="#F1E5DC" stroke-width="1.32679"/>
<path d="M104.178 39.6807C103.824 43.7213 102.549 45.0793 99.0823 44.776C95.6155 44.4727 94.5955 42.9139 94.949 38.8733L95.5975 31.4616C95.9489 27.445 97.2262 26.0631 100.693 26.3664C104.16 26.6697 105.178 28.2524 104.826 32.2691L104.178 39.6807ZM98.2729 39.9833C98.1893 40.9396 98.5383 41.3556 99.3751 41.4288C100.212 41.502 100.628 41.153 100.712 40.1966L101.492 31.2787C101.584 30.2267 101.237 29.7868 100.4 29.7136C99.5633 29.6404 99.1452 30.0133 99.0531 31.0653L98.2729 39.9833Z" fill="#F1E5DC"/>
<rect x="109.662" y="24.6203" width="25.2091" height="25.2091" transform="rotate(-6 109.662 24.6203)" fill="#151513"/>
<rect x="109.662" y="24.6203" width="25.2091" height="25.2091" transform="rotate(-6 109.662 24.6203)" stroke="#F1E5DC" stroke-width="1.32679"/>
<path d="M128.481 38.7874C128.904 42.8212 127.912 44.3976 124.451 44.7614C120.99 45.1251 119.691 43.7896 119.267 39.7558L118.49 32.3565C118.068 28.3466 119.058 26.7464 122.519 26.3826C125.98 26.0188 127.281 27.3783 127.703 31.3882L128.481 38.7874ZM122.742 40.2111C122.842 41.1658 123.264 41.5076 124.1 41.4198C124.935 41.332 125.277 40.9099 125.176 39.9552L124.241 31.0522C124.13 30.002 123.706 29.6364 122.87 29.7242C122.035 29.812 121.696 30.2579 121.806 31.3081L122.742 40.2111Z" fill="#F1E5DC"/>
<rect x="133.453" y="23.2337" width="25.2091" height="25.2091" fill="#151513"/>
<rect x="133.453" y="23.2337" width="25.2091" height="25.2091" stroke="#F1E5DC" stroke-width="1.32679"/>
<path d="M146.37 37.3223C146.322 37.1303 146.154 37.1063 146.058 37.2743L145.026 39.1703C144.906 39.4103 144.882 39.5063 144.882 39.7943V43.6823C144.882 44.3783 144.69 44.5703 143.994 44.5703H142.458C141.762 44.5703 141.57 44.3783 141.57 43.6823V27.4583C141.57 26.7623 141.762 26.5703 142.458 26.5703H143.946C144.642 26.5703 144.834 26.7623 144.834 27.4583V32.5943C144.834 32.7863 144.906 32.8343 145.026 32.8343C145.122 32.8343 145.194 32.8103 145.266 32.6423L147.738 27.4583C148.122 26.6663 148.29 26.5703 149.202 26.5703H150.69C151.386 26.5703 151.53 26.9303 151.242 27.5063L148.458 33.0503C148.314 33.3143 148.314 33.4343 148.41 33.7223L151.434 43.5623C151.626 44.2103 151.41 44.5703 150.762 44.5703H149.298C148.578 44.5703 148.338 44.3783 148.146 43.7303L146.37 37.3223Z" fill="#F1E5DC"/>
<defs>
<clipPath id="clip0_0_7">
<rect width="70" height="222" fill="white" transform="translate(222.272 0.410896) rotate(90)"/>
</clipPath>
</defs>
</svg>
