<svg width="229" height="93" viewBox="0 0 229 93" fill="none" xmlns="http://www.w3.org/2000/svg">
<g clip-path="url(#clip0_0_7)">
<path d="M48.7159 18.7366C48.6794 18.39 48.3102 18.1509 47.904 18.1936L44.8738 18.512C44.4566 18.5559 44.1562 18.8654 44.1926 19.212L44.327 20.4908L48.8613 20.0142L48.7268 18.7354L48.7159 18.7366Z" fill="#CF5035"/>
<path d="M37.809 25.1272L38.128 28.1628C38.3694 30.4598 40.2757 32.1421 42.3858 31.9203L53.1121 30.7929C55.2222 30.5711 56.737 28.5293 56.4956 26.2323L56.1765 23.1966C55.9351 20.8997 54.0288 19.2174 51.9188 19.4391L41.1925 20.5665C39.0824 20.7883 37.5675 22.8302 37.809 25.1272Z" fill="#151513"/>
<path d="M37.6985 28.7154L37.2752 24.6878C37.0327 22.3812 38.5592 20.3237 40.6781 20.1009L52.3157 18.8778C54.4346 18.6551 56.3555 20.3503 56.5979 22.6569L57.0212 26.6845C57.2636 28.9911 55.7372 31.0486 53.6183 31.2713L41.9807 32.4945C39.8618 32.7172 37.9409 31.022 37.6985 28.7154ZM55.6427 22.7573C55.4606 21.0243 54.0181 19.7622 52.4372 19.9284L40.7996 21.1515C39.2077 21.3188 38.0714 22.8641 38.2523 24.5851L38.6756 28.6127C38.8577 30.3456 40.3002 31.6078 41.8812 31.4416L53.5187 30.2185C55.1106 30.0511 56.2469 28.5059 56.066 26.7849L55.6427 22.7573Z" fill="#CF5035"/>
<path d="M55.901 87.0982L55.7666 85.8194L51.2324 86.296L51.3668 87.5748C51.4032 87.9214 51.7724 88.1605 52.1787 88.1178L55.2088 87.7993C55.626 87.7555 55.9265 87.446 55.8901 87.0994L55.901 87.0982Z" fill="#CF5035"/>
<path d="M62.2728 81.1844L61.9537 78.1488C61.7123 75.8518 59.806 74.1695 57.696 74.3913L46.9697 75.5187C44.8596 75.7405 43.3448 77.7823 43.5862 80.0793L43.9052 83.1149C44.1467 85.4119 46.0529 87.0942 48.163 86.8725L58.8893 85.7451C60.9994 85.5233 62.5142 83.4814 62.2728 81.1844Z" fill="#151513"/>
<path d="M43.4751 83.6675L43.0518 79.6399C42.8093 77.3333 44.3358 75.2758 46.4547 75.0531L58.0922 73.8299C60.2112 73.6072 62.132 75.3024 62.3745 77.609L62.7978 81.6366C63.0402 83.9432 61.5138 86.0008 59.3949 86.2235L47.7573 87.4466C45.6384 87.6693 43.7175 85.9741 43.4751 83.6675ZM61.4193 77.7094C61.2372 75.9765 59.7947 74.7143 58.2138 74.8805L46.5762 76.1037C44.9843 76.271 43.848 77.8162 44.0289 79.5372L44.4522 83.5648C44.6343 85.2978 46.0768 86.5599 47.6577 86.3938L59.2953 85.1706C60.8872 85.0033 62.0235 83.458 61.8426 81.737L61.4193 77.7094Z" fill="#CF5035"/>
<path d="M184.365 73.596L184.231 72.3172L179.697 72.7937L179.831 74.0725C179.868 74.4191 180.237 74.6582 180.643 74.6155L183.673 74.2971C184.09 74.2532 184.391 73.9437 184.355 73.5971L184.365 73.596Z" fill="#CF5035"/>
<path d="M190.735 67.6824L190.416 64.6467C190.175 62.3497 188.269 60.6674 186.158 60.8892L175.432 62.0166C173.322 62.2384 171.807 64.2802 172.049 66.5772L172.368 69.6129C172.609 71.9099 174.515 73.5921 176.625 73.3704L187.352 72.243C189.462 72.0212 190.977 69.9793 190.735 67.6824Z" fill="#151513"/>
<path d="M171.938 70.1655L171.515 66.1379C171.273 63.8313 172.799 61.7737 174.929 61.5499L186.566 60.3267C188.685 60.104 190.606 61.7992 190.849 64.1058L191.272 68.1334C191.514 70.44 189.988 72.4975 187.869 72.7202L176.232 73.9434C174.113 74.1661 172.181 72.4721 171.938 70.1655ZM189.883 64.2074C189.7 62.4744 188.258 61.2123 186.677 61.3784L175.039 62.6016C173.448 62.7689 172.311 64.3142 172.492 66.0352L172.915 70.0628C173.098 71.7957 174.54 73.0578 176.121 72.8917L187.759 71.6685C189.35 71.5012 190.487 69.9559 190.306 68.235L189.883 64.2074Z" fill="#CF5035"/>
<path d="M177.178 5.23462C177.142 4.88803 176.773 4.64892 176.367 4.69161L173.336 5.01009C172.919 5.05394 172.619 5.36344 172.655 5.71003L172.79 6.98882L177.324 6.51225L177.189 5.23346L177.178 5.23462Z" fill="#CF5035"/>
<path d="M166.271 11.6252L166.591 14.6608C166.832 16.9578 168.738 18.6401 170.848 18.4183L181.575 17.2909C183.685 17.0692 185.2 15.0273 184.958 12.7303L184.639 9.69468C184.398 7.39769 182.491 5.7154 180.381 5.93718L169.655 7.06455C167.545 7.28633 166.03 9.32819 166.271 11.6252Z" fill="#151513"/>
<path d="M166.162 15.2133L165.738 11.1857C165.496 8.87914 167.022 6.82161 169.152 6.59775L180.79 5.3746C182.909 5.15189 184.83 6.84709 185.072 9.15369L185.495 13.1813C185.738 15.4879 184.211 17.5454 182.092 17.7681L170.455 18.9913C168.336 19.214 166.404 17.52 166.162 15.2133ZM184.106 9.25524C183.924 7.5223 182.481 6.26015 180.9 6.42632L169.263 7.64947C167.671 7.81679 166.535 9.36205 166.716 11.083L167.139 15.1106C167.321 16.8436 168.763 18.1057 170.344 17.9396L181.982 16.7164C183.574 16.5491 184.71 15.0038 184.529 13.2828L184.106 9.25524Z" fill="#CF5035"/>
<path d="M189.423 69.7656C194.086 69.771 198.73 69.0774 203.155 67.561C227.847 59.0571 224.665 34.8019 224.665 34.8019C224.665 34.8019 222.736 10.4271 196.816 7.24265C192.171 6.6675 187.485 6.9667 182.925 7.94135C176.4 9.32803 45.7958 23.055 39.1247 23.0554C34.4621 23.05 29.8175 23.7436 25.3925 25.2599C0.700589 33.7639 3.88135 58.0072 3.88135 58.0072C3.88135 58.0072 5.81055 82.382 31.731 85.5664C36.3757 86.1415 41.0618 85.8423 45.6214 84.8677C52.1469 83.481 182.751 69.754 189.422 69.7537L189.423 69.7656Z" fill="#CF5035"/>
<path d="M194.607 46.8788C195.17 47.3755 195.993 47.2889 196.451 46.6849C196.898 46.0821 196.804 45.1857 196.24 44.6771C195.677 44.1804 194.854 44.267 194.396 44.871C193.949 45.4738 194.043 46.3702 194.607 46.8788Z" fill="#151513"/>
<path d="M194.598 29.0567C194.036 28.5601 193.212 28.6466 192.754 29.2506C192.307 29.8534 192.401 30.7498 192.965 31.2584C193.528 31.7551 194.351 31.6686 194.809 31.0646C195.257 30.4617 195.162 29.5654 194.598 29.0567Z" fill="#151513"/>
<path d="M185.523 45.8037C184.96 45.307 184.137 45.3936 183.679 45.9976C183.231 46.6004 183.326 47.4968 183.89 48.0054C184.452 48.5021 185.276 48.4155 185.734 47.8116C186.181 47.2087 186.087 46.3124 185.523 45.8037Z" fill="#151513"/>
<path d="M183.881 30.1833C183.319 29.6867 182.495 29.7732 182.037 30.3772C181.59 30.98 181.684 31.8764 182.248 32.385C182.811 32.8817 183.634 32.7952 184.092 32.1912C184.54 31.5883 184.445 30.692 183.881 30.1833Z" fill="#151513"/>
<path d="M33.9357 45.9432C33.3729 45.4465 32.5495 45.5331 32.1022 46.1359C31.655 46.7388 31.7492 47.6351 32.3133 48.1438C32.8761 48.6404 33.6995 48.5539 34.1467 47.951C34.594 47.3482 34.4998 46.4519 33.9357 45.9432Z" fill="#151513"/>
<path d="M35.5774 61.5636C35.0146 61.0669 34.1912 61.1535 33.7439 61.7563C33.2967 62.3592 33.3909 63.2555 33.955 63.7641C34.5178 64.2608 35.3412 64.1743 35.7884 63.5714C36.2357 62.9686 36.1414 62.0722 35.5774 61.5636Z" fill="#151513"/>
<path d="M44.6529 44.8166C44.0901 44.3199 43.2667 44.4065 42.8194 45.0093C42.3722 45.6122 42.4664 46.5085 43.0304 47.0171C43.5933 47.5138 44.4167 47.4273 44.8639 46.8244C45.3111 46.2216 45.2169 45.3252 44.6529 44.8166Z" fill="#151513"/>
<path d="M44.6601 62.6388C45.223 63.1355 46.0464 63.049 46.4936 62.4461C46.9408 61.8433 46.8466 60.9469 46.2826 60.4383C45.7185 59.9297 44.8964 60.0282 44.4491 60.631C44.0019 61.2338 44.0961 62.1302 44.6601 62.6388Z" fill="#151513"/>
<path d="M13.5685 35.1786C16.984 31.1342 21.635 28.4945 26.4257 26.8672C32.867 24.6798 39.6608 24.8962 46.3362 24.3033C60.2458 23.0468 74.1424 21.562 88.0294 20.0903C116.375 17.099 144.742 14.2988 173.055 10.9967C176.718 10.5754 180.4 10.2247 184.023 9.52974C187.844 8.81398 191.733 8.53811 195.627 8.93844C201.43 9.54895 207.376 11.5219 211.95 15.645C207.676 12.2637 202.397 10.5107 197.239 9.80817C190.471 8.88825 184.013 10.3887 177.344 11.2468C163.576 13.008 149.754 14.4608 135.96 15.971C107.822 19.0492 79.6605 21.997 51.4803 24.5601C47.8304 24.8954 44.1829 25.2546 40.5191 25.4584C36.6893 25.6676 32.9361 25.76 29.194 26.6971C23.5277 28.1264 17.803 30.7943 13.5697 35.1905L13.5685 35.1786Z" fill="#151513"/>
<path d="M18.1138 78.4185C22.4753 81.3676 27.6889 82.8134 32.7361 83.31C39.4544 83.9693 46.0218 82.3486 52.6392 81.5202C66.3996 79.796 80.1975 78.3216 93.9916 76.8113C122.14 73.732 150.299 70.7603 178.491 68.208C182.087 67.8784 185.688 67.5 189.292 67.3628C193.172 67.2088 196.949 66.9205 200.706 65.8127C206.457 64.1328 212.203 61.1364 216.221 56.2795C213.09 60.5961 208.595 63.5578 203.874 65.4314C197.45 67.9916 190.792 67.906 184.037 68.483C170.12 69.6678 156.227 71.1885 142.339 72.6482C113.992 75.6276 85.6255 78.4277 57.3071 81.682C53.611 82.1068 49.9014 82.5087 46.2301 83.0638C42.3954 83.6481 38.6768 84.2806 34.7714 84.0869C28.9792 83.7894 22.9255 82.1661 18.115 78.4304L18.1138 78.4185Z" fill="#151513"/>
</g>
<rect x="55.0357" y="40.5963" width="25.2091" height="25.2091" transform="rotate(-11 55.0357 40.5963)" fill="#151513"/>
<rect x="55.0357" y="40.5963" width="25.2091" height="25.2091" transform="rotate(-11 55.0357 40.5963)" stroke="#F1E5DC" stroke-width="1.32679"/>
<path d="M69.9148 58.5355C70.0476 59.2187 69.8958 59.4438 69.2126 59.5766L67.7048 59.8697C67.0216 60.0025 66.7965 59.8506 66.6637 59.1674L65.4913 53.1363C65.2898 52.0997 65.2545 51.6665 65.3541 50.6692L66.1012 43.0669C66.1916 42.0225 66.3905 41.7882 67.6156 41.5501L68.4637 41.3852C69.6888 41.1471 69.961 41.2898 70.4361 42.2243L73.9767 48.9931C74.438 49.857 74.5721 50.2954 74.7736 51.332L75.9459 57.3631C76.0787 58.0463 75.9269 58.2715 75.2437 58.4043L73.7359 58.6973C73.0527 58.8301 72.8276 58.6783 72.6948 57.9951L72.0903 54.8853C72.0262 54.5555 71.9136 54.4796 71.5838 54.5437L69.652 54.9192C69.3221 54.9833 69.2462 55.0958 69.3103 55.4257L69.9148 58.5355ZM71.0134 51.2317C71.2725 51.1813 71.3956 51.0596 71.3543 50.8475C71.3314 50.7297 71.285 50.6165 71.2385 50.5033L69.271 46.1671C69.1781 45.9406 69.1218 45.9027 68.9098 45.9439C68.6977 45.9851 68.6598 46.0414 68.6585 46.2861L68.4586 51.0437C68.4579 51.1661 68.4572 51.2884 68.4801 51.4062C68.5214 51.6183 68.681 51.685 68.9402 51.6346L71.0134 51.2317Z" fill="#F1E5DC"/>
<rect x="80.3032" y="35.7314" width="25.2091" height="25.2091" transform="rotate(-0.999999 80.3032 35.7314)" fill="#151513"/>
<rect x="80.3032" y="35.7314" width="25.2091" height="25.2091" transform="rotate(-0.999999 80.3032 35.7314)" stroke="#F1E5DC" stroke-width="1.32679"/>
<path d="M92.8914 50.6826L92.5794 50.688C92.2435 50.6939 92.1492 50.7916 92.155 51.1275L92.2396 55.9748C92.2518 56.6707 92.0632 56.866 91.3673 56.8781L89.8315 56.9049C89.1356 56.9171 88.9403 56.7285 88.9282 56.0326L88.645 39.811C88.6329 39.1152 88.8215 38.9198 89.5174 38.9077L92.6849 38.8524C96.3323 38.7887 98.0111 40.0796 98.0677 43.3191L98.115 46.0307C98.1715 49.2702 96.5388 50.6189 92.8914 50.6826ZM92.0072 42.6568L92.0813 46.9042C92.0872 47.2401 92.1848 47.3344 92.5208 47.3285L93.0247 47.3198C94.2005 47.2992 94.7201 46.8101 94.6987 45.5863L94.669 43.8825C94.6476 42.6587 94.1113 42.188 92.9355 42.2085L92.4316 42.2173C92.0956 42.2232 92.0013 42.3209 92.0072 42.6568Z" fill="#F1E5DC"/>
<rect x="101.695" y="35.9336" width="25.2091" height="25.2091" transform="rotate(-12 101.695 35.9336)" fill="#151513"/>
<rect x="101.695" y="35.9336" width="25.2091" height="25.2091" transform="rotate(-12 101.695 35.9336)" stroke="#F1E5DC" stroke-width="1.32679"/>
<path d="M116.905 48.2082L116.6 48.273C116.271 48.3429 116.197 48.4567 116.267 48.7854L117.275 53.5275C117.42 54.2082 117.272 54.436 116.591 54.5807L115.089 54.9C114.408 55.0447 114.18 54.8969 114.035 54.2161L110.662 38.3466C110.518 37.6658 110.665 37.4381 111.346 37.2934L114.445 36.6347C118.013 35.8762 119.908 36.8231 120.581 39.9923L121.145 42.645C121.819 45.8142 120.473 47.4497 116.905 48.2082ZM114.506 40.4985L115.389 44.6537C115.459 44.9824 115.573 45.0563 115.901 44.9864L116.394 44.8817C117.545 44.6372 117.961 44.0579 117.707 42.8606L117.352 41.1938C117.098 39.9966 116.482 39.6369 115.331 39.8814L114.838 39.9862C114.51 40.056 114.436 40.1699 114.506 40.4985Z" fill="#F1E5DC"/>
<rect x="125.211" y="32.0677" width="25.2091" height="25.2091" transform="rotate(-6 125.211 32.0677)" fill="#151513"/>
<rect x="125.211" y="32.0677" width="25.2091" height="25.2091" transform="rotate(-6 125.211 32.0677)" stroke="#F1E5DC" stroke-width="1.32679"/>
<path d="M139.571 48.248C139.601 48.5345 139.706 48.6199 140.04 48.5848L143.024 48.2712C143.716 48.1984 143.927 48.3693 144 49.0615L144.165 50.6368C144.238 51.329 144.067 51.54 143.375 51.6128L137.551 52.2249C136.859 52.2977 136.648 52.1268 136.575 51.4346L134.879 35.2995C134.807 34.6073 134.977 34.3963 135.67 34.3235L137.197 34.163C137.889 34.0902 138.1 34.2611 138.173 34.9533L139.571 48.248Z" fill="#F1E5DC"/>
<rect x="148.454" y="28.5685" width="25.2091" height="25.2091" transform="rotate(-0.999999 148.454 28.5685)" fill="#151513"/>
<rect x="148.454" y="28.5685" width="25.2091" height="25.2091" transform="rotate(-0.999999 148.454 28.5685)" stroke="#F1E5DC" stroke-width="1.32679"/>
<path d="M162.174 49.6688L160.687 49.6948C159.991 49.7069 159.796 49.5183 159.783 48.8224L159.707 44.4551C159.701 44.1191 159.674 43.9516 159.549 43.6657L157.151 38.2588C156.576 36.9966 156.494 36.3739 156.462 34.5502L156.429 32.6545C156.417 31.9586 156.605 31.7633 157.301 31.7511L158.933 31.7227C159.629 31.7105 159.824 31.8991 159.836 32.595L159.879 35.0667C159.889 35.6186 159.918 35.9301 160.096 36.5031L160.964 39.4404C161.04 39.6791 161.089 39.7263 161.257 39.7233C161.425 39.7204 161.472 39.6716 161.54 39.4303L162.304 36.4645C162.462 35.8857 162.481 35.5733 162.471 35.0214L162.428 32.5498C162.416 31.8539 162.604 31.6586 163.3 31.6464L164.932 31.6179C165.628 31.6058 165.823 31.7944 165.835 32.4903L165.868 34.386C165.9 36.2097 165.839 36.8349 165.309 38.1163L163.101 43.6037C162.986 43.8938 162.965 44.0622 162.971 44.3981L163.047 48.7655C163.059 49.4613 162.87 49.6567 162.174 49.6688Z" fill="#F1E5DC"/>
<defs>
<clipPath id="clip0_0_7">
<rect width="70" height="222" fill="white" transform="translate(221.005 -3.00407e-05) rotate(84)"/>
</clipPath>
</defs>
</svg>
