<svg width="229" height="93" viewBox="0 0 229 93" fill="none" xmlns="http://www.w3.org/2000/svg">
<g clip-path="url(#clip0_0_7)">
<path d="M48.7159 18.7366C48.6794 18.39 48.3102 18.1509 47.904 18.1936L44.8738 18.512C44.4566 18.5559 44.1562 18.8654 44.1926 19.212L44.327 20.4908L48.8613 20.0142L48.7268 18.7354L48.7159 18.7366Z" fill="#CF5035"/>
<path d="M37.809 25.1272L38.128 28.1628C38.3694 30.4598 40.2757 32.1421 42.3858 31.9203L53.1121 30.7929C55.2222 30.5711 56.737 28.5293 56.4956 26.2323L56.1765 23.1966C55.9351 20.8997 54.0288 19.2174 51.9188 19.4391L41.1925 20.5665C39.0824 20.7883 37.5675 22.8302 37.809 25.1272Z" fill="#151513"/>
<path d="M37.6985 28.7154L37.2752 24.6878C37.0327 22.3812 38.5592 20.3237 40.6781 20.1009L52.3157 18.8778C54.4346 18.6551 56.3555 20.3503 56.5979 22.6569L57.0212 26.6845C57.2636 28.9911 55.7372 31.0486 53.6183 31.2713L41.9807 32.4945C39.8618 32.7172 37.9409 31.022 37.6985 28.7154ZM55.6427 22.7573C55.4606 21.0243 54.0181 19.7622 52.4372 19.9284L40.7996 21.1515C39.2077 21.3188 38.0714 22.8641 38.2523 24.5851L38.6756 28.6127C38.8577 30.3456 40.3002 31.6078 41.8812 31.4416L53.5187 30.2185C55.1106 30.0511 56.2469 28.5059 56.066 26.7849L55.6427 22.7573Z" fill="#CF5035"/>
<path d="M55.901 87.0982L55.7666 85.8194L51.2324 86.296L51.3668 87.5748C51.4032 87.9214 51.7724 88.1605 52.1787 88.1178L55.2088 87.7993C55.626 87.7555 55.9265 87.446 55.8901 87.0994L55.901 87.0982Z" fill="#CF5035"/>
<path d="M62.2728 81.1844L61.9537 78.1488C61.7123 75.8518 59.806 74.1695 57.696 74.3913L46.9697 75.5187C44.8596 75.7405 43.3448 77.7823 43.5862 80.0793L43.9052 83.1149C44.1467 85.4119 46.0529 87.0942 48.163 86.8725L58.8893 85.7451C60.9994 85.5233 62.5142 83.4814 62.2728 81.1844Z" fill="#151513"/>
<path d="M43.4751 83.6675L43.0518 79.6399C42.8093 77.3333 44.3358 75.2758 46.4547 75.0531L58.0922 73.8299C60.2112 73.6072 62.132 75.3024 62.3745 77.609L62.7978 81.6366C63.0402 83.9432 61.5138 86.0008 59.3949 86.2235L47.7573 87.4466C45.6384 87.6693 43.7175 85.9741 43.4751 83.6675ZM61.4193 77.7094C61.2372 75.9765 59.7947 74.7143 58.2138 74.8805L46.5762 76.1037C44.9843 76.271 43.848 77.8162 44.0289 79.5372L44.4522 83.5648C44.6343 85.2978 46.0768 86.5599 47.6577 86.3938L59.2953 85.1706C60.8872 85.0033 62.0235 83.458 61.8426 81.737L61.4193 77.7094Z" fill="#CF5035"/>
<path d="M184.365 73.596L184.231 72.3172L179.697 72.7937L179.831 74.0725C179.868 74.4191 180.237 74.6582 180.643 74.6155L183.673 74.2971C184.09 74.2532 184.391 73.9437 184.355 73.5971L184.365 73.596Z" fill="#CF5035"/>
<path d="M190.735 67.6824L190.416 64.6467C190.175 62.3497 188.269 60.6674 186.158 60.8892L175.432 62.0166C173.322 62.2384 171.807 64.2802 172.049 66.5772L172.368 69.6129C172.609 71.9099 174.515 73.5921 176.625 73.3704L187.352 72.243C189.462 72.0212 190.977 69.9793 190.735 67.6824Z" fill="#151513"/>
<path d="M171.938 70.1655L171.515 66.1379C171.273 63.8313 172.799 61.7737 174.929 61.5499L186.566 60.3267C188.685 60.104 190.606 61.7992 190.849 64.1058L191.272 68.1334C191.514 70.44 189.988 72.4975 187.869 72.7202L176.232 73.9434C174.113 74.1661 172.181 72.4721 171.938 70.1655ZM189.883 64.2074C189.7 62.4744 188.258 61.2123 186.677 61.3784L175.039 62.6016C173.448 62.7689 172.311 64.3142 172.492 66.0352L172.915 70.0628C173.098 71.7957 174.54 73.0578 176.121 72.8917L187.759 71.6685C189.35 71.5012 190.487 69.9559 190.306 68.235L189.883 64.2074Z" fill="#CF5035"/>
<path d="M177.178 5.23462C177.142 4.88803 176.773 4.64892 176.367 4.69161L173.336 5.01009C172.919 5.05394 172.619 5.36344 172.655 5.71003L172.79 6.98882L177.324 6.51225L177.189 5.23346L177.178 5.23462Z" fill="#CF5035"/>
<path d="M166.271 11.6252L166.591 14.6608C166.832 16.9578 168.738 18.6401 170.848 18.4183L181.575 17.2909C183.685 17.0692 185.2 15.0273 184.958 12.7303L184.639 9.69468C184.398 7.39769 182.491 5.7154 180.381 5.93718L169.655 7.06455C167.545 7.28633 166.03 9.32819 166.271 11.6252Z" fill="#151513"/>
<path d="M166.162 15.2133L165.738 11.1857C165.496 8.87914 167.022 6.82161 169.152 6.59775L180.79 5.3746C182.909 5.15189 184.83 6.84709 185.072 9.15369L185.495 13.1813C185.738 15.4879 184.211 17.5454 182.092 17.7681L170.455 18.9913C168.336 19.214 166.404 17.52 166.162 15.2133ZM184.106 9.25524C183.924 7.5223 182.481 6.26015 180.9 6.42632L169.263 7.64947C167.671 7.81679 166.535 9.36205 166.716 11.083L167.139 15.1106C167.321 16.8436 168.763 18.1057 170.344 17.9396L181.982 16.7164C183.574 16.5491 184.71 15.0038 184.529 13.2828L184.106 9.25524Z" fill="#CF5035"/>
<path d="M189.423 69.7656C194.086 69.771 198.73 69.0774 203.155 67.561C227.847 59.0571 224.665 34.8019 224.665 34.8019C224.665 34.8019 222.736 10.4271 196.816 7.24265C192.171 6.6675 187.485 6.9667 182.925 7.94135C176.4 9.32803 45.7958 23.055 39.1247 23.0554C34.4621 23.05 29.8175 23.7436 25.3925 25.2599C0.700589 33.7639 3.88135 58.0072 3.88135 58.0072C3.88135 58.0072 5.81055 82.382 31.731 85.5664C36.3757 86.1415 41.0618 85.8423 45.6214 84.8677C52.1469 83.481 182.751 69.754 189.422 69.7537L189.423 69.7656Z" fill="#CF5035"/>
<rect x="64.9482" y="39.3435" width="25.2091" height="25.2091" transform="rotate(-9.32529 64.9482 39.3435)" fill="#151513"/>
<rect x="64.9482" y="39.3435" width="25.2091" height="25.2091" transform="rotate(-9.32529 64.9482 39.3435)" stroke="#F1E5DC" stroke-width="1.32679"/>
<path d="M78.5663 46.9824L82.0488 49.2319C83.8689 50.3923 84.3641 51.1865 84.6247 52.7733L84.6947 53.1996C85.1847 56.1836 84.3201 58.0281 80.8861 58.592C77.4521 59.1558 76.0859 57.9452 75.4598 54.1323L75.382 53.6586C75.2692 52.9718 75.4276 52.7513 76.1144 52.6385L77.7248 52.374C78.4116 52.2613 78.6322 52.4196 78.745 53.1064L78.9161 54.1485C79.0716 55.0958 79.5128 55.4125 80.3417 55.2764C81.1706 55.1402 81.4912 54.7228 81.3512 53.8702L81.2773 53.4202C81.1684 52.7571 80.9718 52.4489 79.9672 51.8112L76.7092 49.7438C74.893 48.6071 74.4292 47.8563 74.1686 46.2696L74.0831 45.7486C73.5931 42.7645 74.4576 40.9201 77.8916 40.3562C81.3256 39.7923 82.6919 41.0029 83.318 44.8158L83.3958 45.2895C83.5086 45.9763 83.3502 46.1969 82.6634 46.3096L81.053 46.5741C80.3662 46.6869 80.1456 46.5285 80.0328 45.8417L79.8617 44.7997C79.7061 43.8524 79.265 43.5357 78.4361 43.6718C77.6072 43.8079 77.2866 44.2254 77.4266 45.0779L77.4927 45.4805C77.6055 46.1673 77.802 46.4756 78.5663 46.9824Z" fill="#F1E5DC"/>
<rect x="90.3471" y="35.2191" width="25.2091" height="25.2091" transform="rotate(0.674711 90.3471 35.2191)" fill="#151513"/>
<rect x="90.3471" y="35.2191" width="25.2091" height="25.2091" transform="rotate(0.674711 90.3471 35.2191)" stroke="#F1E5DC" stroke-width="1.32679"/>
<path d="M102.5 42.4913L102.468 45.1791C102.465 45.4911 102.559 45.6122 102.895 45.6162L105.871 45.6512C106.567 45.6594 106.757 45.8537 106.748 46.5496L106.73 48.1335C106.722 48.8295 106.527 49.0192 105.879 49.0116L102.856 48.976C102.52 48.972 102.422 49.0669 102.419 49.4029L102.377 52.9066C102.374 53.2186 102.468 53.3397 102.804 53.3437L106.068 53.3821C106.764 53.3903 106.954 53.5845 106.945 54.2805L106.927 55.8644C106.919 56.5603 106.724 56.7501 106.028 56.7419L99.9088 56.6698C99.2128 56.6616 99.0231 56.4674 99.0313 55.7714L99.2223 39.5485C99.2305 38.8526 99.4248 38.6629 100.121 38.671L106.24 38.7431C106.936 38.7513 107.126 38.9456 107.118 39.6415L107.099 41.2254C107.091 41.9214 106.897 42.1111 106.201 42.1029L102.937 42.0644C102.601 42.0605 102.504 42.1554 102.5 42.4913Z" fill="#F1E5DC"/>
<rect x="111.724" y="36.0464" width="25.2091" height="25.2091" transform="rotate(-10.3253 111.724 36.0464)" fill="#151513"/>
<rect x="111.724" y="36.0464" width="25.2091" height="25.2091" transform="rotate(-10.3253 111.724 36.0464)" stroke="#F1E5DC" stroke-width="1.32679"/>
<path d="M126.917 42.6956C127.074 42.8866 127.129 42.9252 127.271 42.8994C127.413 42.8736 127.447 42.7942 127.417 42.6289L126.509 37.6469C126.385 36.9622 126.539 36.7389 127.224 36.6141L128.664 36.3517C129.349 36.227 129.572 36.3814 129.697 37.0662L132.605 53.0274C132.73 53.7122 132.575 53.9355 131.89 54.0602L130.45 54.3226C129.765 54.4474 129.542 54.2929 129.417 53.6082L128.828 50.3734C128.626 49.2637 128.387 48.8924 127.848 48.21L124.908 44.5253C124.751 44.3343 124.696 44.2956 124.554 44.3215C124.412 44.3473 124.378 44.4267 124.408 44.592L126.159 54.2018C126.284 54.8865 126.129 55.1098 125.444 55.2346L124.004 55.497C123.319 55.6217 123.096 55.4673 122.971 54.7825L120.063 38.8213C119.939 38.1365 120.093 37.9132 120.778 37.7885L121.699 37.6207C122.572 37.4615 122.929 37.543 123.601 38.4207L126.917 42.6956Z" fill="#F1E5DC"/>
<rect x="135.343" y="32.8695" width="25.2091" height="25.2091" transform="rotate(-4.32529 135.343 32.8695)" fill="#151513"/>
<rect x="135.343" y="32.8695" width="25.2091" height="25.2091" transform="rotate(-4.32529 135.343 32.8695)" stroke="#F1E5DC" stroke-width="1.32679"/>
<path d="M147.447 35.3001C152.042 34.9526 153.102 36.5572 153.41 40.6256L153.898 47.0871C154.206 51.1555 153.4 52.9013 148.805 53.2489L145.885 53.4697C145.191 53.5222 144.985 53.3452 144.933 52.6512L143.709 36.4734C143.656 35.7794 143.833 35.5734 144.527 35.521L147.447 35.3001ZM147.629 38.656C147.294 38.6813 147.205 38.7843 147.231 39.1193L148.016 49.5057C148.04 49.8168 148.144 49.9292 148.479 49.9039L148.743 49.8839C150.083 49.7826 150.634 49.1151 150.516 47.5596L149.995 40.6672C149.878 39.1117 149.232 38.5347 147.892 38.6361L147.629 38.656Z" fill="#F1E5DC"/>
<path d="M194.607 46.8788C195.17 47.3755 195.993 47.2889 196.451 46.6849C196.898 46.0821 196.804 45.1857 196.24 44.6771C195.677 44.1804 194.854 44.267 194.396 44.871C193.949 45.4738 194.043 46.3702 194.607 46.8788Z" fill="#151513"/>
<path d="M194.598 29.0567C194.036 28.5601 193.212 28.6466 192.754 29.2506C192.307 29.8534 192.401 30.7498 192.965 31.2584C193.528 31.7551 194.351 31.6686 194.809 31.0646C195.257 30.4617 195.162 29.5654 194.598 29.0567Z" fill="#151513"/>
<path d="M185.523 45.8037C184.96 45.307 184.137 45.3936 183.679 45.9976C183.231 46.6004 183.326 47.4968 183.89 48.0054C184.452 48.5021 185.276 48.4155 185.734 47.8116C186.181 47.2087 186.087 46.3124 185.523 45.8037Z" fill="#151513"/>
<path d="M183.881 30.1833C183.319 29.6867 182.495 29.7732 182.037 30.3772C181.59 30.98 181.684 31.8764 182.248 32.385C182.811 32.8817 183.634 32.7952 184.092 32.1912C184.54 31.5883 184.445 30.692 183.881 30.1833Z" fill="#151513"/>
<path d="M33.9357 45.9432C33.3729 45.4465 32.5495 45.5331 32.1022 46.1359C31.655 46.7388 31.7492 47.6351 32.3133 48.1438C32.8761 48.6404 33.6995 48.5539 34.1467 47.951C34.594 47.3482 34.4998 46.4519 33.9357 45.9432Z" fill="#151513"/>
<path d="M35.5774 61.5636C35.0146 61.0669 34.1912 61.1535 33.7439 61.7563C33.2967 62.3592 33.3909 63.2555 33.955 63.7641C34.5178 64.2608 35.3412 64.1743 35.7884 63.5714C36.2357 62.9686 36.1414 62.0722 35.5774 61.5636Z" fill="#151513"/>
<path d="M44.6529 44.8166C44.0901 44.3199 43.2667 44.4065 42.8194 45.0093C42.3722 45.6122 42.4664 46.5085 43.0304 47.0171C43.5933 47.5138 44.4167 47.4273 44.8639 46.8244C45.3111 46.2216 45.2169 45.3252 44.6529 44.8166Z" fill="#151513"/>
<path d="M44.6601 62.6388C45.223 63.1355 46.0464 63.049 46.4936 62.4461C46.9408 61.8433 46.8466 60.9469 46.2826 60.4383C45.7185 59.9297 44.8964 60.0282 44.4491 60.631C44.0019 61.2338 44.0961 62.1302 44.6601 62.6388Z" fill="#151513"/>
<path d="M13.5685 35.1786C16.984 31.1342 21.635 28.4945 26.4257 26.8672C32.867 24.6798 39.6608 24.8962 46.3362 24.3033C60.2458 23.0468 74.1424 21.562 88.0294 20.0903C116.375 17.099 144.742 14.2988 173.055 10.9967C176.718 10.5754 180.4 10.2247 184.023 9.52974C187.844 8.81398 191.733 8.53811 195.627 8.93844C201.43 9.54895 207.376 11.5219 211.95 15.645C207.676 12.2637 202.397 10.5107 197.239 9.80817C190.471 8.88825 184.013 10.3887 177.344 11.2468C163.576 13.008 149.754 14.4608 135.96 15.971C107.822 19.0492 79.6605 21.997 51.4803 24.5601C47.8304 24.8954 44.1829 25.2546 40.5191 25.4584C36.6893 25.6676 32.9361 25.76 29.194 26.6971C23.5277 28.1264 17.803 30.7943 13.5697 35.1905L13.5685 35.1786Z" fill="#151513"/>
<path d="M18.1138 78.4185C22.4753 81.3676 27.6889 82.8134 32.7361 83.31C39.4544 83.9693 46.0218 82.3486 52.6392 81.5202C66.3996 79.796 80.1975 78.3216 93.9916 76.8113C122.14 73.732 150.299 70.7603 178.491 68.208C182.087 67.8784 185.688 67.5 189.292 67.3628C193.172 67.2088 196.949 66.9205 200.706 65.8127C206.457 64.1328 212.203 61.1364 216.221 56.2795C213.09 60.5961 208.595 63.5578 203.874 65.4314C197.45 67.9916 190.792 67.906 184.037 68.483C170.12 69.6678 156.227 71.1885 142.339 72.6482C113.992 75.6276 85.6255 78.4277 57.3071 81.682C53.611 82.1068 49.9014 82.5087 46.2301 83.0638C42.3954 83.6481 38.6768 84.2806 34.7714 84.0869C28.9792 83.7894 22.9255 82.1661 18.115 78.4304L18.1138 78.4185Z" fill="#151513"/>
</g>
<defs>
<clipPath id="clip0_0_7">
<rect width="70" height="222" fill="white" transform="translate(221.005 -3.00407e-05) rotate(84)"/>
</clipPath>
</defs>
</svg>
