<svg width="229" height="93" viewBox="0 0 229 93" fill="none" xmlns="http://www.w3.org/2000/svg">
<g clip-path="url(#clip0_0_7)">
<path d="M48.7159 18.7366C48.6794 18.39 48.3102 18.1509 47.904 18.1936L44.8738 18.512C44.4566 18.5559 44.1562 18.8654 44.1926 19.212L44.327 20.4908L48.8613 20.0142L48.7268 18.7354L48.7159 18.7366Z" fill="#CF5035"/>
<path d="M37.809 25.1272L38.128 28.1628C38.3694 30.4598 40.2757 32.1421 42.3858 31.9203L53.1121 30.7929C55.2222 30.5711 56.737 28.5293 56.4956 26.2323L56.1765 23.1966C55.9351 20.8997 54.0288 19.2174 51.9188 19.4391L41.1925 20.5665C39.0824 20.7883 37.5675 22.8302 37.809 25.1272Z" fill="#151513"/>
<path d="M37.6985 28.7154L37.2752 24.6878C37.0327 22.3812 38.5592 20.3237 40.6781 20.1009L52.3157 18.8778C54.4346 18.6551 56.3555 20.3503 56.5979 22.6569L57.0212 26.6845C57.2636 28.9911 55.7372 31.0486 53.6183 31.2713L41.9807 32.4945C39.8618 32.7172 37.9409 31.022 37.6985 28.7154ZM55.6427 22.7573C55.4606 21.0243 54.0181 19.7622 52.4372 19.9284L40.7996 21.1515C39.2077 21.3188 38.0714 22.8641 38.2523 24.5851L38.6756 28.6127C38.8577 30.3456 40.3002 31.6078 41.8812 31.4416L53.5187 30.2185C55.1106 30.0511 56.2469 28.5059 56.066 26.7849L55.6427 22.7573Z" fill="#CF5035"/>
<path d="M55.901 87.0982L55.7666 85.8194L51.2324 86.296L51.3668 87.5748C51.4032 87.9214 51.7724 88.1605 52.1787 88.1178L55.2088 87.7993C55.626 87.7555 55.9265 87.446 55.8901 87.0994L55.901 87.0982Z" fill="#CF5035"/>
<path d="M62.2728 81.1844L61.9537 78.1488C61.7123 75.8518 59.806 74.1695 57.696 74.3913L46.9697 75.5187C44.8596 75.7405 43.3448 77.7823 43.5862 80.0793L43.9052 83.1149C44.1467 85.4119 46.0529 87.0942 48.163 86.8725L58.8893 85.7451C60.9994 85.5233 62.5142 83.4814 62.2728 81.1844Z" fill="#151513"/>
<path d="M43.4751 83.6675L43.0518 79.6399C42.8093 77.3333 44.3358 75.2758 46.4547 75.0531L58.0922 73.8299C60.2112 73.6072 62.132 75.3024 62.3745 77.609L62.7978 81.6366C63.0402 83.9432 61.5138 86.0008 59.3949 86.2235L47.7573 87.4466C45.6384 87.6693 43.7175 85.9741 43.4751 83.6675ZM61.4193 77.7094C61.2372 75.9765 59.7947 74.7143 58.2138 74.8805L46.5762 76.1037C44.9843 76.271 43.848 77.8162 44.0289 79.5372L44.4522 83.5648C44.6343 85.2978 46.0768 86.5599 47.6577 86.3938L59.2953 85.1706C60.8872 85.0033 62.0235 83.458 61.8426 81.737L61.4193 77.7094Z" fill="#CF5035"/>
<path d="M184.365 73.596L184.231 72.3172L179.697 72.7937L179.831 74.0725C179.868 74.4191 180.237 74.6582 180.643 74.6155L183.673 74.2971C184.09 74.2532 184.391 73.9437 184.355 73.5971L184.365 73.596Z" fill="#CF5035"/>
<path d="M190.735 67.6824L190.416 64.6467C190.175 62.3497 188.269 60.6674 186.158 60.8892L175.432 62.0166C173.322 62.2384 171.807 64.2802 172.049 66.5772L172.368 69.6129C172.609 71.9099 174.515 73.5921 176.625 73.3704L187.352 72.243C189.462 72.0212 190.977 69.9793 190.735 67.6824Z" fill="#151513"/>
<path d="M171.938 70.1655L171.515 66.1379C171.273 63.8313 172.799 61.7737 174.929 61.5499L186.566 60.3267C188.685 60.104 190.606 61.7992 190.849 64.1058L191.272 68.1334C191.514 70.44 189.988 72.4975 187.869 72.7202L176.232 73.9434C174.113 74.1661 172.181 72.4721 171.938 70.1655ZM189.883 64.2074C189.7 62.4744 188.258 61.2123 186.677 61.3784L175.039 62.6016C173.448 62.7689 172.311 64.3142 172.492 66.0352L172.915 70.0628C173.098 71.7957 174.54 73.0578 176.121 72.8917L187.759 71.6685C189.35 71.5012 190.487 69.9559 190.306 68.235L189.883 64.2074Z" fill="#CF5035"/>
<path d="M177.178 5.23462C177.142 4.88803 176.773 4.64892 176.367 4.69161L173.336 5.01009C172.919 5.05394 172.619 5.36344 172.655 5.71003L172.79 6.98882L177.324 6.51225L177.189 5.23346L177.178 5.23462Z" fill="#CF5035"/>
<path d="M166.271 11.6252L166.591 14.6608C166.832 16.9578 168.738 18.6401 170.848 18.4183L181.575 17.2909C183.685 17.0692 185.2 15.0273 184.958 12.7303L184.639 9.69468C184.398 7.39769 182.491 5.7154 180.381 5.93718L169.655 7.06455C167.545 7.28633 166.03 9.32819 166.271 11.6252Z" fill="#151513"/>
<path d="M166.162 15.2133L165.738 11.1857C165.496 8.87914 167.022 6.82161 169.152 6.59775L180.79 5.3746C182.909 5.15189 184.83 6.84709 185.072 9.15369L185.495 13.1813C185.738 15.4879 184.211 17.5454 182.092 17.7681L170.455 18.9913C168.336 19.214 166.404 17.52 166.162 15.2133ZM184.106 9.25524C183.924 7.5223 182.481 6.26015 180.9 6.42632L169.263 7.64947C167.671 7.81679 166.535 9.36205 166.716 11.083L167.139 15.1106C167.321 16.8436 168.763 18.1057 170.344 17.9396L181.982 16.7164C183.574 16.5491 184.71 15.0038 184.529 13.2828L184.106 9.25524Z" fill="#CF5035"/>
<path d="M189.423 69.7656C194.086 69.771 198.73 69.0774 203.155 67.5611C227.847 59.0571 224.665 34.8019 224.665 34.8019C224.665 34.8019 222.736 10.4271 196.816 7.24265C192.171 6.6675 187.485 6.9667 182.925 7.94135C176.4 9.32803 45.7958 23.055 39.1247 23.0554C34.4621 23.05 29.8175 23.7436 25.3925 25.2599C0.700593 33.7639 3.88135 58.0072 3.88135 58.0072C3.88135 58.0072 5.81055 82.382 31.731 85.5664C36.3757 86.1415 41.0618 85.8423 45.6214 84.8677C52.1468 83.481 182.751 69.754 189.422 69.7537L189.423 69.7656Z" fill="#CF5035"/>
<path d="M194.607 46.8788C195.17 47.3755 195.993 47.2889 196.451 46.6849C196.898 46.0821 196.804 45.1857 196.24 44.6771C195.677 44.1804 194.854 44.267 194.396 44.871C193.949 45.4738 194.043 46.3702 194.607 46.8788Z" fill="#151513"/>
<path d="M194.598 29.0567C194.036 28.5601 193.212 28.6466 192.754 29.2506C192.307 29.8534 192.401 30.7498 192.965 31.2584C193.528 31.7551 194.351 31.6686 194.809 31.0646C195.257 30.4617 195.162 29.5654 194.598 29.0567Z" fill="#151513"/>
<path d="M185.523 45.8037C184.96 45.307 184.137 45.3936 183.679 45.9976C183.231 46.6004 183.326 47.4968 183.89 48.0054C184.452 48.5021 185.276 48.4155 185.734 47.8116C186.181 47.2087 186.087 46.3124 185.523 45.8037Z" fill="#151513"/>
<path d="M183.881 30.1833C183.319 29.6867 182.495 29.7732 182.037 30.3772C181.59 30.98 181.684 31.8764 182.248 32.385C182.811 32.8817 183.634 32.7952 184.092 32.1912C184.54 31.5883 184.445 30.692 183.881 30.1833Z" fill="#151513"/>
<path d="M33.9357 45.9432C33.3729 45.4465 32.5495 45.5331 32.1022 46.1359C31.655 46.7388 31.7492 47.6351 32.3133 48.1438C32.8761 48.6404 33.6995 48.5539 34.1467 47.951C34.594 47.3482 34.4998 46.4519 33.9357 45.9432Z" fill="#151513"/>
<path d="M35.5774 61.5636C35.0146 61.0669 34.1912 61.1535 33.7439 61.7563C33.2967 62.3592 33.3909 63.2555 33.955 63.7641C34.5178 64.2608 35.3412 64.1743 35.7884 63.5714C36.2357 62.9686 36.1414 62.0722 35.5774 61.5636Z" fill="#151513"/>
<path d="M44.6529 44.8166C44.0901 44.3199 43.2667 44.4065 42.8194 45.0093C42.3722 45.6122 42.4664 46.5085 43.0304 47.0171C43.5933 47.5138 44.4167 47.4273 44.8639 46.8244C45.3111 46.2216 45.2169 45.3252 44.6529 44.8166Z" fill="#151513"/>
<path d="M44.6601 62.6388C45.223 63.1355 46.0464 63.049 46.4936 62.4461C46.9408 61.8433 46.8466 60.9469 46.2826 60.4383C45.7185 59.9297 44.8964 60.0282 44.4491 60.631C44.0019 61.2338 44.0961 62.1302 44.6601 62.6388Z" fill="#151513"/>
<path d="M13.5685 35.1786C16.984 31.1342 21.635 28.4945 26.4257 26.8672C32.867 24.6798 39.6608 24.8962 46.3362 24.3033C60.2458 23.0468 74.1424 21.562 88.0294 20.0903C116.375 17.099 144.742 14.2988 173.055 10.9967C176.718 10.5754 180.4 10.2247 184.023 9.52974C187.844 8.81398 191.733 8.53811 195.627 8.93844C201.43 9.54895 207.376 11.5219 211.95 15.645C207.676 12.2637 202.397 10.5107 197.239 9.80817C190.471 8.88825 184.013 10.3887 177.344 11.2468C163.576 13.008 149.754 14.4608 135.96 15.971C107.822 19.0492 79.6605 21.997 51.4803 24.5601C47.8304 24.8954 44.1829 25.2546 40.5191 25.4584C36.6893 25.6676 32.9361 25.76 29.194 26.6971C23.5277 28.1264 17.803 30.7943 13.5697 35.1905L13.5685 35.1786Z" fill="#151513"/>
<path d="M18.1138 78.4185C22.4753 81.3676 27.6889 82.8134 32.7361 83.31C39.4544 83.9693 46.0218 82.3486 52.6392 81.5202C66.3996 79.796 80.1975 78.3216 93.9916 76.8113C122.14 73.732 150.299 70.7603 178.491 68.208C182.087 67.8784 185.688 67.5 189.292 67.3628C193.172 67.2088 196.949 66.9205 200.706 65.8127C206.457 64.1328 212.203 61.1364 216.221 56.2795C213.09 60.5961 208.595 63.5578 203.874 65.4314C197.45 67.9916 190.792 67.906 184.037 68.483C170.12 69.6678 156.227 71.1885 142.339 72.6482C113.992 75.6276 85.6255 78.4277 57.3071 81.682C53.611 82.1068 49.9014 82.5087 46.2301 83.0638C42.3954 83.6481 38.6768 84.2806 34.7714 84.0869C28.9792 83.7894 22.9255 82.1661 18.115 78.4304L18.1138 78.4185Z" fill="#151513"/>
</g>
<rect x="64.8831" y="40.5105" width="25.2091" height="25.2091" transform="rotate(-11 64.8831 40.5105)" fill="#151513"/>
<rect x="64.8831" y="40.5105" width="25.2091" height="25.2091" transform="rotate(-11 64.8831 40.5105)" stroke="#F1E5DC" stroke-width="1.32679"/>
<path d="M77.7594 59.7435C77.0761 59.8763 76.851 59.7245 76.7182 59.0413L73.6226 43.1154C73.4898 42.4322 73.6416 42.207 74.3248 42.0742L77.6702 41.424C81.0862 40.76 82.8884 41.7299 83.4425 44.5805L83.7081 45.947C83.9463 47.172 83.7152 48.1216 83.0372 49.0357C82.9802 49.1202 82.9613 49.1483 82.9704 49.1954C82.9796 49.2425 83.0077 49.2615 83.0921 49.3185C84.1293 49.8748 84.7281 50.5652 84.9708 51.8138L85.415 54.0991C85.9462 56.8319 84.5679 58.4201 80.987 59.1162L77.7594 59.7435ZM77.4278 45.3341L77.9544 48.0433C78.0186 48.3732 78.1311 48.4491 78.4609 48.385L78.9557 48.2888C80.1101 48.0644 80.5505 47.5632 80.349 46.5266L80.2162 45.8434C80.0147 44.8068 79.4186 44.507 78.2642 44.7314L77.7694 44.8276C77.4396 44.8917 77.3637 45.0042 77.4278 45.3341ZM80.5343 55.7813C81.6887 55.5569 82.1291 55.0556 81.9277 54.019L81.6666 52.6761C81.4651 51.6395 80.869 51.3398 79.7146 51.5642L79.1021 51.6832C78.7722 51.7474 78.6963 51.8599 78.7604 52.1897L79.4153 55.5587C79.4794 55.8885 79.5919 55.9644 79.9218 55.9003L80.5343 55.7813Z" fill="#F1E5DC"/>
<rect x="90.1506" y="35.6455" width="25.2091" height="25.2091" transform="rotate(-0.999999 90.1506 35.6455)" fill="#151513"/>
<rect x="90.1506" y="35.6455" width="25.2091" height="25.2091" transform="rotate(-0.999999 90.1506 35.6455)" stroke="#F1E5DC" stroke-width="1.32679"/>
<path d="M107.663 51.3989C107.734 55.4543 106.607 56.9382 103.128 56.9989C99.6485 57.0596 98.4712 55.616 98.4004 51.5606L98.2705 44.1217C98.2002 40.0903 99.326 38.5825 102.805 38.5217C106.285 38.461 107.463 39.9287 107.533 43.96L107.663 51.3989ZM101.822 52.317C101.839 53.2768 102.229 53.6541 103.069 53.6394C103.909 53.6248 104.286 53.2341 104.27 52.2743L104.113 43.3236C104.095 42.2678 103.704 41.8665 102.864 41.8812C102.024 41.8959 101.647 42.3105 101.666 43.3663L101.822 52.317Z" fill="#F1E5DC"/>
<rect x="111.543" y="35.8477" width="25.2091" height="25.2091" transform="rotate(-12 111.543 35.8477)" fill="#151513"/>
<rect x="111.543" y="35.8477" width="25.2091" height="25.2091" transform="rotate(-12 111.543 35.8477)" stroke="#F1E5DC" stroke-width="1.32679"/>
<path d="M131.739 47.9702C132.582 51.9375 131.76 53.609 128.356 54.3326C124.952 55.0561 123.521 53.8636 122.678 49.8962L121.131 42.6188C120.292 38.6749 121.11 36.9799 124.514 36.2564C127.918 35.5329 129.354 36.7488 130.192 40.6927L131.739 47.9702ZM126.181 49.9859C126.38 50.9249 126.836 51.2206 127.658 51.046C128.479 50.8714 128.775 50.4159 128.575 49.4769L126.714 40.7205C126.495 39.6876 126.034 39.3683 125.212 39.543C124.391 39.7176 124.1 40.1966 124.32 41.2295L126.181 49.9859Z" fill="#F1E5DC"/>
<rect x="135.059" y="31.9819" width="25.2091" height="25.2091" transform="rotate(-6 135.059 31.9819)" fill="#151513"/>
<rect x="135.059" y="31.9819" width="25.2091" height="25.2091" transform="rotate(-6 135.059 31.9819)" stroke="#F1E5DC" stroke-width="1.32679"/>
<path d="M149.378 44.6431C149.31 44.4572 149.14 44.4509 149.062 44.628L148.234 46.6215C148.14 46.8727 148.126 46.9707 148.156 47.2571L148.563 51.1238C148.635 51.816 148.465 52.027 147.772 52.0998L146.245 52.2603C145.553 52.3331 145.342 52.1622 145.269 51.47L143.573 35.3349C143.5 34.6427 143.671 34.4317 144.363 34.3589L145.843 34.2034C146.535 34.1306 146.746 34.3015 146.819 34.9937L147.356 40.1016C147.376 40.2925 147.453 40.3327 147.572 40.3202C147.667 40.3101 147.737 40.2787 147.791 40.1041L149.707 34.6901C150.006 33.8623 150.163 33.7493 151.07 33.654L152.55 33.4984C153.242 33.4257 153.423 33.7687 153.197 34.3716L151.008 40.1762C150.892 40.4539 150.905 40.5732 151.03 40.8496L155.066 50.3196C155.325 50.944 155.148 51.3246 154.503 51.3923L153.047 51.5453C152.331 51.6206 152.073 51.4547 151.814 50.8304L149.378 44.6431Z" fill="#F1E5DC"/>
<defs>
<clipPath id="clip0_0_7">
<rect width="70" height="222" fill="white" transform="translate(221.005 -3.00407e-05) rotate(84)"/>
</clipPath>
</defs>
</svg>
