<svg width="223" height="70" viewBox="0 0 223 70" fill="none" xmlns="http://www.w3.org/2000/svg">
<g clip-path="url(#clip0_1_4521)">
<path d="M49.0294 0.624755C49.0294 0.276257 48.6871 -0.000137346 48.2787 -0.000137366L45.2319 -0.000137514C44.8124 -0.000137534 44.4812 0.276257 44.4812 0.624755L44.4812 1.91059L49.0404 1.91059L49.0404 0.624755L49.0294 0.624755Z" fill="#7F50D3"/>
<path d="M37.515 5.8402L37.515 8.89256C37.515 11.2022 39.235 13.0745 41.3567 13.0745L52.1421 13.0745C54.2638 13.0745 55.9837 11.2022 55.9837 8.89257L55.9837 5.8402C55.9837 3.53056 54.2638 1.65823 52.1421 1.65823L41.3567 1.65823C39.235 1.65823 37.515 3.53056 37.515 5.8402Z" fill="#151513"/>
<path d="M37.0292 9.39729L37.0292 5.3475C37.0292 3.02819 38.7624 1.14149 40.893 1.14149L52.5946 1.14149C54.7252 1.14149 56.4584 3.02819 56.4584 5.3475L56.4584 9.39729C56.4584 11.7166 54.7252 13.6033 52.5946 13.6033L40.893 13.6033C38.7624 13.6033 37.0292 11.7166 37.0292 9.39729ZM55.4979 5.3475C55.4979 3.60501 54.1953 2.19901 52.6057 2.19901L40.904 2.199C39.3033 2.199 38.0117 3.61703 38.0117 5.3475L38.0117 9.39729C38.0117 11.1398 39.3144 12.5458 40.904 12.5458L52.6057 12.5458C54.2064 12.5458 55.4979 11.1278 55.4979 9.39729L55.4979 5.3475Z" fill="#7F50D3"/>
<path d="M49.0287 69.363L49.0287 68.0772L44.4695 68.0772L44.4695 69.363C44.4695 69.7115 44.8117 69.9879 45.2201 69.9879L48.267 69.9879C48.6865 69.9879 49.0177 69.7115 49.0177 69.363L49.0287 69.363Z" fill="#7F50D3"/>
<path d="M55.984 64.1479L55.984 61.0955C55.984 58.7859 54.264 56.9136 52.1423 56.9136L41.357 56.9136C39.2353 56.9136 37.5153 58.7859 37.5153 61.0955L37.5153 64.1479C37.5153 66.4575 39.2353 68.3299 41.357 68.3299L52.1423 68.3299C54.264 68.3299 55.984 66.4575 55.984 64.1479Z" fill="#151513"/>
<path d="M37.0295 64.6523L37.0295 60.6025C37.0295 58.2832 38.7626 56.3965 40.8932 56.3965L52.5949 56.3965C54.7255 56.3965 56.4586 58.2832 56.4586 60.6025L56.4586 64.6523C56.4586 66.9716 54.7254 68.8583 52.5949 68.8583L40.8932 68.8583C38.7626 68.8583 37.0295 66.9716 37.0295 64.6523ZM55.4982 60.6025C55.4982 58.86 54.1956 57.454 52.6059 57.454L40.9043 57.454C39.3036 57.454 38.012 58.872 38.012 60.6025L38.012 64.6523C38.012 66.3948 39.3146 67.8008 40.9043 67.8008L52.6059 67.8008C54.2066 67.8008 55.4982 66.3827 55.4982 64.6523L55.4982 60.6025Z" fill="#7F50D3"/>
<path d="M178.201 69.3629L178.201 68.0771L173.641 68.0771L173.641 69.3629C173.641 69.7114 173.984 69.9878 174.392 69.9878L177.439 69.9878C177.858 69.9878 178.19 69.7114 178.19 69.3629L178.201 69.3629Z" fill="#7F50D3"/>
<path d="M185.154 64.1475L185.154 61.0952C185.154 58.7855 183.434 56.9132 181.312 56.9132L170.527 56.9132C168.405 56.9132 166.685 58.7855 166.685 61.0952L166.685 64.1475C166.685 66.4572 168.405 68.3295 170.527 68.3295L181.312 68.3295C183.434 68.3295 185.154 66.4572 185.154 64.1475Z" fill="#151513"/>
<path d="M166.2 64.6523L166.2 60.6025C166.2 58.2832 167.933 56.3965 170.075 56.3965L181.776 56.3965C183.907 56.3965 185.64 58.2832 185.64 60.6025L185.64 64.6523C185.64 66.9716 183.907 68.8583 181.776 68.8583L170.075 68.8583C167.944 68.8583 166.2 66.9716 166.2 64.6523ZM184.669 60.6025C184.669 58.86 183.366 57.454 181.776 57.454L170.075 57.454C168.474 57.454 167.182 58.872 167.182 60.6025L167.182 64.6523C167.182 66.3948 168.485 67.8008 170.075 67.8008L181.776 67.8008C183.377 67.8008 184.669 66.3827 184.669 64.6523L184.669 60.6025Z" fill="#7F50D3"/>
<path d="M178.199 0.624786C178.199 0.276288 177.857 -0.000106829 177.449 -0.000106849L174.402 -0.000106996C173.982 -0.000107017 173.651 0.276288 173.651 0.624786L173.651 1.91062L178.21 1.91062L178.21 0.624786L178.199 0.624786Z" fill="#7F50D3"/>
<path d="M166.685 5.84017L166.685 8.89253C166.685 11.2022 168.405 13.0745 170.526 13.0745L181.312 13.0745C183.434 13.0745 185.154 11.2022 185.154 8.89253L185.154 5.84017C185.154 3.53053 183.434 1.6582 181.312 1.6582L170.526 1.6582C168.405 1.6582 166.685 3.53053 166.685 5.84017Z" fill="#151513"/>
<path d="M166.2 9.39729L166.2 5.3475C166.2 3.02819 167.933 1.14149 170.075 1.14149L181.776 1.14149C183.907 1.14149 185.64 3.02819 185.64 5.3475L185.64 9.39729C185.64 11.7166 183.907 13.6033 181.776 13.6033L170.075 13.6033C167.944 13.6033 166.2 11.7166 166.2 9.39729ZM184.668 5.3475C184.668 3.60501 183.366 2.19901 181.776 2.19901L170.075 2.199C168.474 2.199 167.182 3.61703 167.182 5.3475L167.182 9.39729C167.182 11.1398 168.485 12.5458 170.075 12.5458L181.776 12.5458C183.377 12.5458 184.668 11.1278 184.668 9.39729L184.668 5.3475Z" fill="#7F50D3"/>
<path d="M183.632 66.0821C188.269 66.5749 192.96 66.3706 197.52 65.3251C222.965 59.4487 222.336 34.9937 222.336 34.9937C222.336 34.9937 222.965 10.5508 197.52 4.67442C192.96 3.61691 188.269 3.42463 183.632 3.91734C176.998 4.61433 45.6742 4.61432 39.0396 3.91733C34.4031 3.42462 29.7114 3.62892 25.1522 4.67441C-0.293352 10.5508 0.335873 34.9937 0.335873 34.9937C0.335873 34.9937 -0.293354 59.4366 25.1522 65.313C29.7114 66.3706 34.4031 66.5628 39.0396 66.0701C45.6742 65.3731 176.998 65.3731 183.632 66.0701L183.632 66.0821Z" fill="#7F50D3"/>
<path d="M191.18 43.8626C191.688 44.4154 192.516 44.4154 193.034 43.8626C193.542 43.3098 193.542 42.4085 193.034 41.8437C192.527 41.2909 191.699 41.2909 191.18 41.8437C190.672 42.3965 190.672 43.2978 191.18 43.8626Z" fill="#151513"/>
<path d="M193.034 26.1373C192.527 25.5845 191.699 25.5845 191.18 26.1373C190.672 26.6901 190.672 27.5913 191.18 28.1561C191.688 28.7089 192.516 28.7089 193.034 28.1561C193.542 27.6034 193.542 26.7021 193.034 26.1373Z" fill="#151513"/>
<path d="M182.259 41.8438C181.751 41.291 180.923 41.291 180.405 41.8438C179.897 42.3966 179.897 43.2979 180.405 43.8627C180.912 44.4155 181.74 44.4155 182.259 43.8627C182.767 43.3099 182.767 42.4086 182.259 41.8438Z" fill="#151513"/>
<path d="M182.259 26.1374C181.751 25.5846 180.923 25.5846 180.405 26.1374C179.897 26.6902 179.897 27.5915 180.405 28.1563C180.912 28.7091 181.74 28.7091 182.259 28.1563C182.767 27.6035 182.767 26.7022 182.259 26.1374Z" fill="#151513"/>
<path d="M31.4877 26.1373C30.9799 25.5845 30.1519 25.5845 29.6441 26.1373C29.1363 26.6901 29.1363 27.5914 29.6441 28.1562C30.1519 28.709 30.9799 28.709 31.4877 28.1562C31.9955 27.6034 31.9955 26.7021 31.4877 26.1373Z" fill="#151513"/>
<path d="M31.4877 41.8437C30.9799 41.2909 30.1519 41.2909 29.6441 41.8437C29.1363 42.3965 29.1363 43.2978 29.6441 43.8626C30.1519 44.4154 30.9799 44.4154 31.4877 43.8626C31.9955 43.3098 31.9955 42.4085 31.4877 41.8437Z" fill="#151513"/>
<path d="M42.2631 26.1372C41.7553 25.5844 40.9273 25.5844 40.4195 26.1372C39.9117 26.69 39.9117 27.5913 40.4195 28.1561C40.9273 28.7089 41.7553 28.7089 42.2631 28.1561C42.7709 27.6033 42.7709 26.702 42.2631 26.1372Z" fill="#151513"/>
<path d="M40.4078 43.8625C40.9156 44.4153 41.7435 44.4153 42.2513 43.8625C42.7592 43.3097 42.7592 42.4084 42.2513 41.8436C41.7435 41.2788 40.9156 41.2909 40.4078 41.8436C39.9 42.3964 39.9 43.2977 40.4078 43.8625Z" fill="#151513"/>
<path d="M12.3564 13.3028C16.176 9.63753 21.0774 7.49848 26.012 6.38088C32.6466 4.87873 39.3805 5.80406 46.0814 5.91221C60.0461 6.1165 74.0218 6.09247 87.9865 6.08045C116.49 6.06844 144.993 6.2487 173.497 5.92424C177.184 5.88818 180.882 5.92424 184.558 5.61179C188.433 5.29934 192.33 5.43153 196.16 6.23668C201.868 7.45042 207.575 10.0341 211.693 14.6126C207.796 10.8032 202.729 8.50793 197.673 7.27016C191.038 5.64784 184.459 6.46501 177.736 6.62123C163.86 6.93368 149.961 6.93368 136.085 6.99376C107.78 7.11393 79.4642 7.10191 51.1705 6.70535C47.5055 6.65728 43.8404 6.63324 40.1754 6.45298C36.3448 6.26071 32.6024 5.96028 28.7828 6.50105C22.9982 7.33024 17.026 9.38517 12.3564 13.3148L12.3564 13.3028Z" fill="#151513"/>
<path d="M12.3564 56.781C16.3857 60.1698 21.4196 62.1527 26.3873 63.1741C32.9998 64.5321 39.7007 63.6067 46.3684 63.4745C60.2338 63.1981 74.1101 63.1741 87.9865 63.114C116.302 62.9939 144.618 62.9818 172.923 63.3904C176.533 63.4385 180.154 63.4385 183.752 63.6788C187.627 63.9312 191.414 64.0394 195.266 63.3303C201.161 62.2608 207.189 59.8814 211.693 55.4711C208.127 59.4368 203.347 61.9123 198.457 63.2823C191.8 65.157 185.187 64.3758 178.409 64.2436C164.445 63.9672 150.469 64.0273 136.504 64.0273C108.001 64.0273 79.4973 63.8471 50.9939 64.1235C47.2736 64.1595 43.5424 64.1715 39.8332 64.3398C35.9584 64.52 32.194 64.7604 28.3302 64.1595C22.6008 63.2582 16.75 61.011 12.3564 56.793L12.3564 56.781Z" fill="#151513"/>
</g>
<rect x="63.6983" y="23.9925" width="25.2091" height="25.2091" transform="rotate(-5 63.6983 23.9925)" fill="white"/>
<rect x="63.6983" y="23.9925" width="25.2091" height="25.2091" transform="rotate(-5 63.6983 23.9925)" stroke="#7F50D3" stroke-width="1.32679"/>
<path d="M74.4937 44.4662C73.8003 44.5268 73.5923 44.3523 73.5317 43.6589L72.1177 27.4967C72.057 26.8033 72.2315 26.5953 72.9249 26.5347L76.3199 26.2376C79.7867 25.9343 81.4776 27.0873 81.7307 29.9803L81.852 31.367C81.9608 32.6102 81.6317 33.5304 80.8619 34.3687C80.7964 34.4467 80.7746 34.4727 80.7788 34.5205C80.783 34.5683 80.809 34.5902 80.887 34.6556C81.8603 35.3173 82.3836 36.0665 82.4945 37.3337L82.6974 39.6528C82.94 42.4262 81.4033 43.8616 77.7692 44.1796L74.4937 44.4662ZM75.6702 30.101L75.9107 32.8505C75.94 33.1852 76.044 33.2724 76.3787 33.2432L76.8808 33.1992C78.0523 33.0967 78.5428 32.6443 78.4507 31.5923L78.3901 30.8989C78.298 29.847 77.7365 29.4865 76.5649 29.589L76.0629 29.633C75.7281 29.6622 75.6409 29.7662 75.6702 30.101ZM77.6676 40.8156C78.8391 40.7131 79.3296 40.2607 79.2375 39.2087L79.1183 37.8459C79.0263 36.7939 78.4647 36.4335 77.2932 36.536L76.6716 36.5904C76.3368 36.6197 76.2496 36.7237 76.2789 37.0584L76.578 40.4773C76.6073 40.812 76.7113 40.8993 77.046 40.87L77.6676 40.8156Z" fill="#7F50D3"/>
<rect x="89.336" y="21.7954" width="25.2091" height="25.2091" transform="rotate(5 89.336 21.7954)" fill="white"/>
<rect x="89.336" y="21.7954" width="25.2091" height="25.2091" transform="rotate(5 89.336 21.7954)" stroke="#7F50D3" stroke-width="1.32679"/>
<path d="M105.106 39.293C104.752 43.3336 103.477 44.6916 100.01 44.3883C96.5435 44.085 95.5235 42.5262 95.877 38.4856L96.5255 31.0739C96.8769 27.0572 98.1542 25.6753 101.621 25.9786C105.088 26.2819 106.106 27.8647 105.754 31.8813L105.106 39.293ZM99.2009 39.5955C99.1173 40.5519 99.4663 40.9679 100.303 41.0411C101.14 41.1143 101.556 40.7652 101.64 39.8089L102.42 30.8909C102.512 29.839 102.165 29.399 101.328 29.3258C100.491 29.2526 100.073 29.6256 99.9812 30.6776L99.2009 39.5955Z" fill="#7F50D3"/>
<rect x="110.59" y="24.2326" width="25.2091" height="25.2091" transform="rotate(-6 110.59 24.2326)" fill="white"/>
<rect x="110.59" y="24.2326" width="25.2091" height="25.2091" transform="rotate(-6 110.59 24.2326)" stroke="#7F50D3" stroke-width="1.32679"/>
<path d="M129.408 38.3997C129.832 42.4335 128.84 44.0099 125.379 44.3736C121.918 44.7374 120.619 43.4018 120.195 39.368L119.418 31.9688C118.996 27.9589 119.986 26.3586 123.447 25.9949C126.908 25.6311 128.209 26.9905 128.631 31.0004L129.408 38.3997ZM123.67 39.8233C123.77 40.7781 124.192 41.1198 125.028 41.032C125.863 40.9442 126.205 40.5222 126.104 39.5674L125.169 30.6645C125.058 29.6143 124.634 29.2486 123.798 29.3365C122.963 29.4243 122.624 29.8702 122.734 30.9204L123.67 39.8233Z" fill="#7F50D3"/>
<rect x="134.381" y="22.846" width="25.2091" height="25.2091" fill="white"/>
<rect x="134.381" y="22.846" width="25.2091" height="25.2091" stroke="#7F50D3" stroke-width="1.32679"/>
<path d="M147.298 36.9346C147.25 36.7426 147.082 36.7186 146.986 36.8866L145.954 38.7826C145.834 39.0226 145.81 39.1186 145.81 39.4066V43.2946C145.81 43.9906 145.618 44.1826 144.922 44.1826H143.386C142.69 44.1826 142.498 43.9906 142.498 43.2946V27.0706C142.498 26.3746 142.69 26.1826 143.386 26.1826H144.874C145.57 26.1826 145.762 26.3746 145.762 27.0706V32.2066C145.762 32.3986 145.834 32.4466 145.954 32.4466C146.05 32.4466 146.122 32.4226 146.194 32.2546L148.666 27.0706C149.05 26.2786 149.218 26.1826 150.13 26.1826H151.618C152.314 26.1826 152.458 26.5426 152.17 27.1186L149.386 32.6626C149.242 32.9266 149.242 33.0466 149.338 33.3346L152.362 43.1746C152.554 43.8226 152.338 44.1826 151.69 44.1826H150.226C149.506 44.1826 149.266 43.9906 149.074 43.3426L147.298 36.9346Z" fill="#7F50D3"/>
<defs>
<clipPath id="clip0_1_4521">
<rect width="70" height="222" fill="white" transform="translate(222.333 -1.52588e-05) rotate(90)"/>
</clipPath>
</defs>
</svg>
