<svg width="527" height="148" viewBox="0 0 527 148" fill="none" xmlns="http://www.w3.org/2000/svg">
<rect x="3.25005" y="20.8326" width="87" height="114" rx="9" transform="rotate(-5 3.25005 20.8326)" fill="#151513"/>
<rect x="3.25005" y="20.8326" width="87" height="114" rx="9" transform="rotate(-5 3.25005 20.8326)" stroke="white" stroke-width="6"/>
<path d="M45.889 86.6107L44.4903 86.7331C42.984 86.8648 42.5913 87.3328 42.7231 88.8391L44.6245 110.572C44.8975 113.692 44.1121 114.628 40.992 114.901L34.1063 115.504C30.9862 115.777 30.0502 114.991 29.7772 111.871L23.4142 39.1409C23.1412 36.0208 23.9266 35.0848 27.0467 34.8118L41.2484 33.5693C57.602 32.1386 65.5433 37.4065 66.814 51.931L67.8777 64.0885C69.1484 78.6131 62.2425 85.1799 45.889 86.6107ZM39.4004 50.8602L41.0665 69.9034C41.1982 71.4097 41.6663 71.8024 43.1725 71.6706L45.4319 71.4729C50.7037 71.0117 52.8824 68.6528 52.4024 63.1658L51.7341 55.527C51.254 50.0399 48.6988 48.0952 43.4269 48.5565L41.1676 48.7541C39.6613 48.8859 39.2686 49.3539 39.4004 50.8602Z" fill="white"/>
<rect x="84.2906" y="23.2501" width="87" height="114" rx="9" transform="rotate(5 84.2906 23.2501)" fill="#151513"/>
<rect x="84.2906" y="23.2501" width="87" height="114" rx="9" transform="rotate(5 84.2906 23.2501)" stroke="white" stroke-width="6"/>
<path d="M122.137 120.896L115.817 93.999C115.411 92.4456 115.018 91.9776 113.404 91.8364L112.974 91.7988C111.468 91.667 111 92.0597 110.868 93.566L108.665 118.742C108.392 121.862 107.456 122.647 104.336 122.374L97.4506 121.772C94.3305 121.499 93.5451 120.563 93.8181 117.443L100.181 44.7126C100.454 41.5926 101.39 40.8071 104.51 41.0801L118.712 42.3226C135.066 43.7534 142 49.9975 140.795 63.7689L140.117 71.5153C139.232 81.6287 137.28 85.3607 131.154 89.7033C130.471 90.0772 130.344 90.2829 130.297 90.8209C130.269 91.1437 130.348 91.4758 130.498 92.2478L137.509 121.157C138.232 124.039 137.043 125.236 134.246 124.991L126.392 124.304C123.38 124.04 122.772 123.554 122.137 120.896ZM113.937 58.4919L112.487 75.0607C112.355 76.5669 112.748 77.0349 114.254 77.1667L116.514 77.3644C121.57 77.8068 124.35 75.7733 124.802 70.609L125.32 64.6916C125.762 59.6349 123.574 57.3837 118.302 56.9224L116.043 56.7248C114.536 56.593 114.068 56.9857 113.937 58.4919Z" fill="white"/>
<rect x="145.507" y="21.6837" width="87" height="114" rx="9" transform="rotate(-6 145.507 21.6837)" fill="#151513"/>
<rect x="145.507" y="21.6837" width="87" height="114" rx="9" transform="rotate(-6 145.507 21.6837)" stroke="white" stroke-width="6"/>
<path d="M192.82 36.817L200.451 109.425C200.778 112.54 200.009 113.49 196.895 113.817L190.02 114.539C186.906 114.867 185.956 114.098 185.629 110.983L177.997 38.3749C177.67 35.2601 178.439 34.3105 181.554 33.9831L188.428 33.2606C191.543 32.9332 192.492 33.7022 192.82 36.817Z" fill="white"/>
<rect x="218.244" y="6.8244" width="87" height="114" rx="9" fill="#151513"/>
<rect x="218.244" y="6.8244" width="87" height="114" rx="9" stroke="white" stroke-width="6"/>
<path d="M277.549 77.9044V81.1444C277.549 98.5324 272.581 104.904 256.921 104.904C241.261 104.904 236.077 98.5324 236.077 81.1444V45.5044C236.077 28.1164 241.261 21.7444 256.921 21.7444C272.581 21.7444 277.549 28.1164 277.549 45.5044V48.7444C277.549 51.8764 276.685 52.7404 273.553 52.7404H266.641C263.509 52.7404 262.645 51.8764 262.645 48.7444V42.9124C262.645 38.5924 260.809 36.8644 257.029 36.8644C253.249 36.8644 251.413 38.5924 251.413 42.9124V83.7364C251.413 88.0564 253.249 89.7844 257.029 89.7844C260.809 89.7844 262.645 88.0564 262.645 83.7364V77.9044C262.645 74.7724 263.509 73.9084 266.641 73.9084H273.553C276.685 73.9084 277.549 74.7724 277.549 77.9044Z" fill="white"/>
<rect x="291.457" y="17.5897" width="87" height="114" rx="9" transform="rotate(6 291.457 17.5897)" fill="#151513"/>
<rect x="291.457" y="17.5897" width="87" height="114" rx="9" transform="rotate(6 291.457 17.5897)" stroke="white" stroke-width="6"/>
<path d="M334.59 42.2292L326.958 114.837C326.631 117.952 325.681 118.721 322.566 118.394L315.692 117.671C312.578 117.344 311.809 116.394 312.136 113.279L319.767 40.6713C320.095 37.5565 321.044 36.7875 324.159 37.1149L331.033 37.8374C334.148 38.1648 334.917 39.1144 334.59 42.2292Z" fill="white"/>
<rect x="352.6" y="17.1648" width="87" height="114" rx="9" transform="rotate(-6.55717 352.6 17.1648)" fill="#151513"/>
<rect x="352.6" y="17.1648" width="87" height="114" rx="9" transform="rotate(-6.55717 352.6 17.1648)" stroke="white" stroke-width="6"/>
<path d="M400.368 54.6311C401.015 55.5351 401.254 55.725 401.898 55.651C402.542 55.577 402.719 55.2305 402.633 54.4794L400.031 31.8405C399.673 28.729 400.433 27.772 403.544 27.4143L410.089 26.662C413.201 26.3043 414.158 27.064 414.516 30.1755L422.853 102.706C423.21 105.817 422.451 106.774 419.339 107.132L412.794 107.884C409.683 108.242 408.726 107.482 408.368 104.371L406.678 89.6717C406.099 84.6289 405.138 82.8912 402.919 79.6675L390.807 62.2527C390.16 61.3487 389.921 61.1588 389.277 61.2328C388.633 61.3068 388.456 61.6533 388.542 62.4044L393.562 106.073C393.919 109.184 393.159 110.141 390.048 110.499L383.503 111.251C380.392 111.609 379.435 110.849 379.077 107.738L370.74 35.2074C370.382 32.0959 371.142 31.1389 374.253 30.7812L378.438 30.3002C382.408 29.8439 383.984 30.315 386.743 34.4551L400.368 54.6311Z" fill="white"/>
<rect x="436.558" y="23.2501" width="87" height="114" rx="9" transform="rotate(5 436.558 23.2501)" fill="#151513"/>
<rect x="436.558" y="23.2501" width="87" height="114" rx="9" transform="rotate(5 436.558 23.2501)" stroke="white" stroke-width="6"/>
<path d="M475.023 95.0396C475.155 93.5334 474.762 93.0653 473.256 92.9336L471.965 92.8206C468.845 92.5476 468.059 91.6116 468.332 88.4915L468.953 81.3907C469.226 78.2706 470.162 77.4852 473.282 77.7581L486.946 78.9536C490.066 79.2265 490.852 80.1626 490.579 83.2826L488.903 102.433C487.388 119.755 481.668 125.651 466.068 124.286C450.467 122.922 445.858 116.122 447.374 98.8001L450.48 63.2958C451.996 45.9739 457.715 40.078 473.316 41.4428C488.916 42.8077 493.31 49.5885 491.794 66.9103L491.747 67.4482C491.474 70.5683 490.538 71.3537 487.418 71.0808L480.533 70.4783C477.412 70.2054 476.627 69.2693 476.9 66.1493L477.173 63.0292C477.549 58.7256 475.871 56.8442 472.105 56.5147C468.34 56.1853 466.36 57.7467 465.984 62.0502L462.426 102.719C462.049 107.022 463.835 108.913 467.816 109.262C471.904 109.619 473.884 108.058 474.26 103.754L475.023 95.0396Z" fill="white"/>
</svg>
