<svg width="227" height="87" viewBox="0 0 227 87" fill="none" xmlns="http://www.w3.org/2000/svg">
<g clip-path="url(#clip0_1_4119)">
<path d="M53.5174 4.77323C53.5417 4.42559 53.2196 4.12599 52.8122 4.0975L49.7727 3.88496C49.3543 3.8557 49.0046 4.10832 48.9803 4.45597L48.8906 5.73867L53.4387 6.05671L53.5284 4.77401L53.5174 4.77323Z" fill="#7F50D3"/>
<path d="M41.6665 9.17269L41.4536 12.2176C41.2925 14.5216 42.8776 16.5094 44.9942 16.6574L55.7533 17.4097C57.8698 17.5577 59.7162 15.8099 59.8773 13.5059L60.0902 10.461C60.2513 8.15699 58.6662 6.16924 56.5496 6.02124L45.7905 5.26889C43.674 5.12088 41.8276 6.86868 41.6665 9.17269Z" fill="#151513"/>
<path d="M40.9346 12.6873L41.2171 8.64734C41.3789 6.33367 43.2395 4.57247 45.3649 4.7211L57.038 5.53736C59.1634 5.68599 60.7607 7.68898 60.5989 10.0026L60.3164 14.0426C60.1547 16.3562 58.2941 18.1174 56.1687 17.9688L44.4956 17.1525C42.3702 17.0039 40.7728 15.0009 40.9346 12.6873ZM59.6408 9.93565C59.7624 8.19741 58.561 6.70396 56.9752 6.59307L45.3021 5.7768C43.7053 5.66514 42.3179 6.98962 42.1972 8.71587L41.9147 12.7558C41.7932 14.494 42.9946 15.9875 44.5803 16.0984L56.2535 16.9146C57.8503 17.0263 59.2376 15.7018 59.3583 13.9756L59.6408 9.93565Z" fill="#7F50D3"/>
<path d="M48.7226 73.344L48.8123 72.0613L44.2641 71.7432L44.1745 73.0259C44.1501 73.3736 44.4722 73.6732 44.8797 73.7017L47.9191 73.9142C48.3376 73.9435 48.6872 73.6909 48.7116 73.3432L48.7226 73.344Z" fill="#7F50D3"/>
<path d="M56.0244 68.6264L56.2373 65.5815C56.3984 63.2774 54.8133 61.2897 52.6967 61.1417L41.9376 60.3893C39.8211 60.2413 37.9747 61.9891 37.8136 64.2931L37.6007 67.3381C37.4396 69.6421 39.0247 71.6298 41.1413 71.7778L51.9004 72.5302C54.0169 72.6782 55.8633 70.9304 56.0244 68.6264Z" fill="#151513"/>
<path d="M37.0811 67.8076L37.3636 63.7677C37.5254 61.454 39.3859 59.6928 41.5113 59.8415L53.1845 60.6577C55.3099 60.8063 56.9072 62.8093 56.7454 65.123L56.4629 69.1629C56.3011 71.4766 54.4406 73.2378 52.3152 73.0892L40.642 72.2729C38.5167 72.1243 36.9193 70.1213 37.0811 67.8076ZM55.7873 65.056C55.9089 63.3178 54.7075 61.8243 53.1217 61.7134L41.4486 60.8972C39.8518 60.7855 38.4644 62.11 38.3437 63.8362L38.0612 67.8762C37.9397 69.6144 39.141 71.1078 40.7268 71.2187L52.4 72.035C53.9968 72.1467 55.3841 70.8222 55.5048 69.0959L55.7873 65.056Z" fill="#7F50D3"/>
<path d="M177.58 82.3545L177.67 81.0718L173.122 80.7537L173.032 82.0364C173.008 82.3841 173.33 82.6837 173.737 82.7122L176.777 82.9247C177.195 82.954 177.545 82.7014 177.569 82.3537L177.58 82.3545Z" fill="#7F50D3"/>
<path d="M184.88 77.6366L185.093 74.5917C185.254 72.2877 183.669 70.2999 181.552 70.1519L170.793 69.3996C168.677 69.2516 166.83 70.9994 166.669 73.3034L166.456 76.3483C166.295 78.6523 167.88 80.6401 169.997 80.7881L180.756 81.5404C182.872 81.6884 184.719 79.9406 184.88 77.6366Z" fill="#151513"/>
<path d="M165.937 76.8181L166.22 72.7782C166.382 70.4645 168.242 68.7033 170.379 68.8527L182.052 69.669C184.177 69.8176 185.774 71.8206 185.613 74.1342L185.33 78.1742C185.168 80.4878 183.308 82.249 181.182 82.1004L169.509 81.2841C167.384 81.1355 165.776 79.1317 165.937 76.8181ZM184.644 74.0665C184.765 72.3282 183.564 70.8348 181.978 70.7239L170.305 69.9076C168.708 69.796 167.321 71.1204 167.2 72.8467L166.917 76.8866C166.796 78.6249 167.997 80.1183 169.583 80.2292L181.256 81.0455C182.853 81.1571 184.24 79.8327 184.361 78.1064L184.644 74.0665Z" fill="#7F50D3"/>
<path d="M182.373 13.7837C182.397 13.4361 182.075 13.1365 181.668 13.108L178.628 12.8955C178.21 12.8662 177.86 13.1188 177.836 13.4665L177.746 14.7492L182.294 15.0672L182.384 13.7845L182.373 13.7837Z" fill="#7F50D3"/>
<path d="M170.522 18.1832L170.309 21.2281C170.148 23.5321 171.733 25.5199 173.85 25.6679L184.609 26.4202C186.725 26.5682 188.572 24.8204 188.733 22.5164L188.946 19.4715C189.107 17.1675 187.522 15.1797 185.405 15.0317L174.646 14.2794C172.529 14.1314 170.683 15.8792 170.522 18.1832Z" fill="#151513"/>
<path d="M169.791 21.6977L170.073 17.6578C170.235 15.3441 172.096 13.5829 174.232 13.7323L185.905 14.5486C188.031 14.6972 189.628 16.7002 189.466 19.0139L189.184 23.0538C189.022 25.3675 187.161 27.1287 185.036 26.98L173.363 26.1638C171.237 26.0152 169.629 24.0114 169.791 21.6977ZM188.497 18.9461C188.619 17.2079 187.417 15.7144 185.831 15.6035L174.158 14.7873C172.561 14.6756 171.174 16.0001 171.053 17.7263L170.771 21.7663C170.649 23.5045 171.851 24.998 173.437 25.1088L185.11 25.9251C186.706 26.0368 188.094 24.7123 188.215 22.986L188.497 18.9461Z" fill="#7F50D3"/>
<path d="M183.226 79.4607C187.817 80.2756 192.511 80.3991 197.132 79.6742C222.926 75.5871 224.004 51.1478 224.004 51.1478C224.004 51.1478 226.337 26.8083 201.363 19.1713C196.889 17.7983 192.222 17.2792 187.562 17.4473C180.895 17.6798 49.8918 8.51912 43.322 7.36102C38.7312 6.54609 34.0366 6.4226 29.4156 7.14752C3.62212 11.2346 2.54476 35.6619 2.54476 35.6619C2.54476 35.6619 0.212012 60.0014 25.1857 67.6384C29.66 69.0114 34.3269 69.5305 38.9864 69.3624C45.6535 69.1299 176.657 78.2906 183.227 79.4487L183.226 79.4607Z" fill="#7F50D3"/>
<path d="M192.305 57.8217C192.773 58.4085 193.599 58.4663 194.155 57.951C194.7 57.435 194.763 56.5359 194.296 55.9371C193.828 55.3502 193.002 55.2924 192.446 55.8077C191.901 56.3237 191.838 57.2228 192.305 57.8217Z" fill="#151513"/>
<path d="M195.392 40.2689C194.924 39.682 194.098 39.6242 193.541 40.1395C192.996 40.6555 192.933 41.5546 193.401 42.1534C193.869 42.7403 194.695 42.7981 195.251 42.2828C195.796 41.7668 195.859 40.8677 195.392 40.2689Z" fill="#151513"/>
<path d="M183.546 55.1854C183.078 54.5985 182.252 54.5407 181.696 55.056C181.151 55.572 181.088 56.4711 181.555 57.07C182.023 57.6568 182.849 57.7146 183.405 57.1993C183.95 56.6833 184.013 55.7842 183.546 55.1854Z" fill="#151513"/>
<path d="M184.642 39.5174C184.174 38.9305 183.348 38.8728 182.792 39.388C182.246 39.904 182.184 40.8031 182.651 41.402C183.119 41.9888 183.945 42.0466 184.501 41.5314C185.046 41.0153 185.109 40.1162 184.642 39.5174Z" fill="#151513"/>
<path d="M34.2374 29.0001C33.7694 28.4132 32.9435 28.3554 32.3983 28.8715C31.8532 29.3875 31.7903 30.2866 32.2575 30.8854C32.7255 31.4723 33.5514 31.53 34.0966 31.014C34.6417 30.498 34.7046 29.5989 34.2374 29.0001Z" fill="#151513"/>
<path d="M33.1417 44.668C32.6737 44.0812 31.8478 44.0234 31.3026 44.5394C30.7575 45.0554 30.6946 45.9545 31.1618 46.5534C31.6298 47.1403 32.4557 47.198 33.0009 46.682C33.546 46.166 33.6089 45.2669 33.1417 44.668Z" fill="#151513"/>
<path d="M44.9874 29.7515C44.5194 29.1647 43.6935 29.1069 43.1483 29.6229C42.6032 30.1389 42.5403 31.038 43.0075 31.6369C43.4755 32.2237 44.3014 32.2815 44.8466 31.7655C45.3917 31.2495 45.4546 30.3504 44.9874 29.7515Z" fill="#151513"/>
<path d="M41.8998 47.3042C42.3678 47.8911 43.1937 47.9489 43.7388 47.4328C44.284 46.9168 44.3468 46.0177 43.8797 45.4189C43.4125 44.82 42.5857 44.7742 42.0406 45.2903C41.4955 45.8063 41.4326 46.7054 41.8998 47.3042Z" fill="#151513"/>
<path d="M16.0488 14.8622C20.1148 11.4723 25.1535 9.68041 30.154 8.90976C36.8773 7.87408 43.5303 9.26688 50.2072 9.8422C64.1237 11.0201 78.0671 11.971 91.9986 12.9332C120.433 14.9095 148.855 17.0776 177.311 18.7422C180.992 18.9635 184.679 19.2574 188.368 19.2022C192.255 19.1608 196.133 19.5645 199.898 20.6349C205.507 22.2438 211.02 25.2193 214.808 30.0739C211.187 26.0019 206.292 23.3588 201.335 21.7713C194.829 19.6902 188.209 20.0464 181.492 19.7332C167.627 19.077 153.763 18.1075 139.916 17.1994C111.672 15.3449 83.4257 13.3577 55.2286 10.9884C51.5759 10.6848 47.9214 10.4052 44.2779 9.96967C40.47 9.51066 36.7578 8.94991 32.9098 9.22292C27.0814 9.64657 20.9804 11.2799 16.048 14.8742L16.0488 14.8622Z" fill="#151513"/>
<path d="M13.0166 58.2344C16.7997 61.8961 21.683 64.2252 26.5674 65.5907C33.0691 67.4066 39.8181 66.951 46.4788 67.2842C60.3297 67.9757 74.1739 68.9197 88.0207 69.8277C116.276 71.6831 144.524 73.6463 172.731 76.0283C176.328 76.3281 179.941 76.5807 183.514 77.0715C187.362 77.5935 191.131 77.9655 195.024 77.527C200.979 76.8713 207.158 74.9181 211.959 70.8328C208.125 74.54 203.184 76.6761 198.21 77.7016C191.439 79.1074 184.897 77.8669 178.144 77.2622C164.233 76.0123 150.287 75.0974 136.356 74.1232C107.922 72.1349 79.501 69.9668 51.0478 68.2543C47.3341 68.0307 43.611 67.7824 39.8991 67.6915C36.0212 67.601 32.2492 67.5782 28.4368 66.7093C22.7842 65.4105 17.1044 62.7607 13.0157 58.2464L13.0166 58.2344Z" fill="#151513"/>
</g>
<rect x="55.0413" y="28.3048" width="25.2091" height="25.2091" transform="rotate(-1 55.0413 28.3048)" fill="white"/>
<rect x="55.0413" y="28.3048" width="25.2091" height="25.2091" transform="rotate(-1 55.0413 28.3048)" stroke="#7F50D3" stroke-width="1.32679"/>
<path d="M67.9355 45.6749C67.9405 45.9629 68.0382 46.0572 68.3741 46.0513L71.3737 45.999C72.0696 45.9868 72.2649 46.1754 72.277 46.8713L72.3047 48.4551C72.3168 49.151 72.1282 49.3463 71.4323 49.3585L65.5772 49.4607C64.8813 49.4728 64.686 49.2842 64.6739 48.5883L64.3907 32.3668C64.3786 31.6709 64.5672 31.4755 65.2631 31.4634L66.7988 31.4366C67.4947 31.4244 67.6901 31.6131 67.7022 32.309L67.9355 45.6749Z" fill="#7F50D3"/>
<rect x="80.7697" y="27.9013" width="25.2091" height="25.2091" transform="rotate(9 80.7697 27.9013)" fill="white"/>
<rect x="80.7697" y="27.9013" width="25.2091" height="25.2091" transform="rotate(9 80.7697 27.9013)" stroke="#7F50D3" stroke-width="1.32679"/>
<path d="M95.2805 46.4564C94.646 50.4625 93.2791 51.7282 89.842 51.1838C86.4048 50.6395 85.496 49.0133 86.1305 45.0072L87.2944 37.6588C87.9251 33.6764 89.2957 32.387 92.7329 32.9314C96.1701 33.4758 97.0751 35.1257 96.4444 39.108L95.2805 46.4564ZM89.3689 46.3463C89.2187 47.2945 89.5379 47.7338 90.3676 47.8652C91.1973 47.9966 91.6366 47.6774 91.7868 46.7292L93.1872 37.8875C93.3524 36.8445 93.0369 36.3814 92.2073 36.25C91.3776 36.1186 90.9345 36.4615 90.7693 37.5045L89.3689 46.3463Z" fill="#7F50D3"/>
<rect x="101.802" y="31.8151" width="25.2091" height="25.2091" transform="rotate(-2 101.802 31.8151)" fill="white"/>
<rect x="101.802" y="31.8151" width="25.2091" height="25.2091" transform="rotate(-2 101.802 31.8151)" stroke="#7F50D3" stroke-width="1.32679"/>
<path d="M116.38 46.2438C116.368 45.908 116.269 45.8154 115.933 45.8271L115.645 45.8372C114.95 45.8615 114.751 45.6763 114.727 44.9807L114.672 43.3977C114.647 42.7021 114.833 42.5035 115.528 42.4792L118.574 42.3729C119.27 42.3486 119.468 42.5338 119.493 43.2293L119.642 47.4987C119.777 51.3604 118.675 52.8157 115.197 52.9372C111.719 53.0586 110.518 51.6837 110.383 47.822L110.107 39.9069C109.972 36.0452 111.074 34.5899 114.552 34.4684C118.03 34.347 119.183 35.7236 119.317 39.5852L119.322 39.7052C119.346 40.4007 119.161 40.5993 118.465 40.6236L116.93 40.6772C116.234 40.7015 116.036 40.5163 116.012 39.8207L115.987 39.1252C115.954 38.1657 115.533 37.7962 114.693 37.8255C113.854 37.8549 113.459 38.2529 113.493 39.2123L113.809 48.2787C113.843 49.2382 114.288 49.6068 115.176 49.5759C116.087 49.544 116.481 49.146 116.448 48.1866L116.38 46.2438Z" fill="#7F50D3"/>
<rect x="125.632" y="32.0916" width="25.2091" height="25.2091" transform="rotate(4 125.632 32.0916)" fill="white"/>
<rect x="125.632" y="32.0916" width="25.2091" height="25.2091" transform="rotate(4 125.632 32.0916)" stroke="#7F50D3" stroke-width="1.32679"/>
<path d="M139.567 37.301L138.436 53.4855C138.387 54.1798 138.182 54.3579 137.488 54.3094L135.956 54.2022C135.261 54.1537 135.083 53.9487 135.132 53.2544L136.263 37.0699C136.312 36.3756 136.517 36.1975 137.211 36.2461L138.743 36.3532C139.438 36.4017 139.616 36.6067 139.567 37.301Z" fill="#7F50D3"/>
<rect x="148.667" y="32.8518" width="25.2091" height="25.2091" transform="rotate(8 148.667 32.8518)" fill="white"/>
<rect x="148.667" y="32.8518" width="25.2091" height="25.2091" transform="rotate(8 148.667 32.8518)" stroke="#7F50D3" stroke-width="1.32679"/>
<path d="M160.998 43.9406C161.087 44.1712 161.128 44.2254 161.271 44.2454C161.413 44.2655 161.471 44.2009 161.494 44.0345L162.199 39.0198C162.296 38.3305 162.513 38.1671 163.202 38.264L164.652 38.4677C165.341 38.5646 165.504 38.7815 165.407 39.4707L163.15 55.5368C163.053 56.226 162.836 56.3894 162.147 56.2926L160.697 56.0888C160.008 55.992 159.844 55.7751 159.941 55.0859L160.399 51.8299C160.556 50.7129 160.446 50.2854 160.149 49.4681L158.517 45.0459C158.428 44.8153 158.387 44.7611 158.244 44.7411C158.102 44.721 158.044 44.7856 158.021 44.952L156.661 54.6249C156.564 55.3142 156.348 55.4776 155.658 55.3807L154.209 55.177C153.519 55.0801 153.356 54.8632 153.453 54.174L155.711 38.1079C155.808 37.4187 156.024 37.2553 156.714 37.3521L157.641 37.4824C158.52 37.606 158.833 37.7954 159.195 38.8399L160.998 43.9406Z" fill="#7F50D3"/>
<defs>
<clipPath id="clip0_1_4119">
<rect width="70" height="222" fill="white" transform="translate(226.443 16.239) rotate(94)"/>
</clipPath>
</defs>
</svg>
